<?xml version="1.0" encoding="UTF-8"?>
<svg version="1.1" xmlns="http://www.w3.org/2000/svg" width="120" height="120">
<path d="M0 0 C39.6 0 79.2 0 120 0 C120 39.6 120 79.2 120 120 C80.4 120 40.8 120 0 120 C0 80.4 0 40.8 0 0 Z " fill="#211A1C" transform="translate(0,0)"/>
<path d="M0 0 C39.6 0 79.2 0 120 0 C120 39.6 120 79.2 120 120 C107.46 120 94.92 120 82 120 C83.125 114.375 83.125 114.375 84.84765625 111.44921875 C85.38422852 110.52592773 85.38422852 110.52592773 85.93164062 109.58398438 C86.30482422 108.95814453 86.67800781 108.33230469 87.0625 107.6875 C87.43955078 107.04232422 87.81660156 106.39714844 88.20507812 105.73242188 C89.13037493 104.15121848 90.06432681 102.5750854 91 101 C90.01 100.360625 89.02 99.72125 88 99.0625 C87.01 98.381875 86.02 97.70125 85 97 C85 96.67 85 96.34 85 96 C85.61488281 95.90203125 86.22976562 95.8040625 86.86328125 95.703125 C91.82594349 94.90254684 91.82594349 94.90254684 95.875 92.1875 C96.431875 91.1046875 96.431875 91.1046875 97 90 C99.19200324 86.01453956 101.38563127 83.75833403 105 81 C106.74522188 77.50955624 106.4477002 73.8175517 106 70 C105.23578096 67.9737338 105.23578096 67.9737338 104.1875 66 C102.08431355 61.77897076 101.31939641 57.6218484 100.625 53 C99.6528296 46.74208767 98.1932592 40.90415613 96.0625 34.9375 C95.70115967 33.92139648 95.70115967 33.92139648 95.33251953 32.88476562 C91.05411295 21.34301765 85.03994533 10.29380061 74 4 C65.91331886 0.40051486 55.54093034 1.41061296 47 3 C43.31831759 4.73572013 41.37551719 6.75170992 39 10 C38.23816406 10.75603516 38.23816406 10.75603516 37.4609375 11.52734375 C32.55022514 16.47583082 29.68298371 22.79546406 26.87011719 29.08740234 C26.04587039 30.89917267 25.15358843 32.67953864 24.2578125 34.45703125 C19.59895917 44.60370567 19.27156118 55.01593854 18.9375 66 C18.91077209 66.76984222 18.88404419 67.53968445 18.85650635 68.33285522 C18.59844908 76.6828192 18.46856884 84.23936092 22 92 C24.85793316 94.85793316 27.14665584 94.40799941 31.125 94.625 C32.40632813 94.69976562 33.68765625 94.77453125 35.0078125 94.8515625 C36.48894531 94.92503906 36.48894531 94.92503906 38 95 C35.32114278 97.87192801 32.56170128 99.33787273 29 101 C29.62841797 101.52400391 29.62841797 101.52400391 30.26953125 102.05859375 C32.67157855 104.7534414 34.11905155 107.84374253 35.6875 111.0625 C36.00783203 111.69994141 36.32816406 112.33738281 36.65820312 112.99414062 C39 117.73265925 39 117.73265925 39 120 C26.13 120 13.26 120 0 120 C0 80.4 0 40.8 0 0 Z " fill="#AFB2AC" transform="translate(0,0)"/>
<path d="M0 0 C17.49 0 34.98 0 53 0 C53 39.6 53 79.2 53 120 C40.46 120 27.92 120 15 120 C16.125 114.375 16.125 114.375 17.84765625 111.44921875 C18.20537109 110.83369141 18.56308594 110.21816406 18.93164062 109.58398438 C19.30482422 108.95814453 19.67800781 108.33230469 20.0625 107.6875 C20.43955078 107.04232422 20.81660156 106.39714844 21.20507812 105.73242188 C22.13037493 104.15121848 23.06432681 102.5750854 24 101 C23.01 100.360625 22.02 99.72125 21 99.0625 C20.01 98.381875 19.02 97.70125 18 97 C18 96.67 18 96.34 18 96 C18.61488281 95.90203125 19.22976562 95.8040625 19.86328125 95.703125 C24.82594349 94.90254684 24.82594349 94.90254684 28.875 92.1875 C29.431875 91.1046875 29.431875 91.1046875 30 90 C32.19200324 86.01453956 34.38563127 83.75833403 38 81 C39.74522188 77.50955624 39.4477002 73.8175517 39 70 C38.23578096 67.9737338 38.23578096 67.9737338 37.1875 66 C35.08431355 61.77897076 34.31939641 57.6218484 33.625 53 C32.6528296 46.74208767 31.1932592 40.90415613 29.0625 34.9375 C28.82160645 34.26009766 28.58071289 33.58269531 28.33251953 32.88476562 C23.74032291 20.49651428 17.16456583 9.08228292 4.9375 2.96875 C3.31301169 2.26131154 1.6590293 1.62213599 0 1 C0 0.67 0 0.34 0 0 Z " fill="#B0B3AC" transform="translate(67,0)"/>
<path d="M0 0 C4.34163286 2.77382099 5.20400306 7.04313736 6.58203125 11.7578125 C7 14 7 14 6 16 C7.32 16 8.64 16 10 16 C10 16.99 10 17.98 10 19 C6.04 19.495 6.04 19.495 2 20 C2.33 20.66 2.66 21.32 3 22 C4.98 21.67 6.96 21.34 9 21 C9 21.66 9 22.32 9 23 C9.804375 23.144375 10.60875 23.28875 11.4375 23.4375 C14 24 14 24 15 25 C15.2248267 28.33272521 15.09925345 31.66319354 15 35 C14.98324219 35.78632812 14.96648437 36.57265625 14.94921875 37.3828125 C14.58937412 43.28426437 12.63104878 47.36149259 9 52 C8.45730469 52.46019531 7.91460937 52.92039063 7.35546875 53.39453125 C4.5224925 56.75001609 5.68028555 61.85555343 6 66 C6.33070464 69.51059123 6.33070464 69.51059123 8 72 C11.52451159 73.46022435 11.52451159 73.46022435 15 74 C13.9894822 76.94734357 12.99056326 79.01150102 11 81.4375 C8.80412287 84.25096757 8.10048193 86.62977408 7 90 C5.671875 93.16796875 5.671875 93.16796875 3 96 C-0.93201343 96.76528861 -4.76329973 96.56346219 -8.75 96.375 C-10.36841797 96.33439453 -10.36841797 96.33439453 -12.01953125 96.29296875 C-14.68171065 96.22229142 -17.33984236 96.12368401 -20 96 C-22.2843856 91.8745597 -23.45777207 88.57664812 -23.8125 83.875 C-23.94591797 82.35519531 -23.94591797 82.35519531 -24.08203125 80.8046875 C-23.99779542 77.9246244 -23.50040632 76.42150518 -22 74 C-20.0625 74.375 -20.0625 74.375 -18 75 C-16.5216774 77.95664519 -16.93967217 80.74229737 -17 84 C-16.34 84 -15.68 84 -15 84 C-15.144375 83.34773438 -15.28875 82.69546875 -15.4375 82.0234375 C-16.44627294 77.27379823 -17.25715306 72.88590812 -17 68 C-16.34 68 -15.68 68 -15 68 C-14.34 68.99 -13.68 69.98 -13 71 C-12.67 64.73 -12.34 58.46 -12 52 C-10.68 51.34 -9.36 50.68 -8 50 C-8.165 49.38125 -8.33 48.7625 -8.5 48.125 C-9 46 -9 46 -9 44 C-11.64 44 -14.28 44 -17 44 C-16.67 45.32 -16.34 46.64 -16 48 C-16.99 48.66 -17.98 49.32 -19 50 C-21.62972146 46.09973895 -22.78046395 42.59045641 -23.75 38 C-24.01296875 36.80375 -24.2759375 35.6075 -24.546875 34.375 C-24.97481436 31.18758958 -24.85973848 29.06717512 -24 26 C-22.68 26 -21.36 26 -20 26 C-20 25.34 -20 24.68 -20 24 C-18.68 24 -17.36 24 -16 24 C-16 23.34 -16 22.68 -16 22 C-15.34 22 -14.68 22 -14 22 C-14 22.66 -14 23.32 -14 24 C-13.34 24 -12.68 24 -12 24 C-12 28.95 -12 33.9 -12 39 C-10.35 39.33 -8.7 39.66 -7 40 C-7.33 39.34 -7.66 38.68 -8 38 C-8.23245299 34.40251332 -8.39500287 30.8115009 -8.51757812 27.20898438 C-8.69367909 23.3513764 -8.81525205 21.27712193 -11 18 C-13.30144109 16.92863949 -15.6340213 15.92010283 -18 15 C-18.33506301 6.45589325 -18.33506301 6.45589325 -16 3 C-10.78101969 -0.39665041 -6.11489973 -1.91839991 0 0 Z " fill="#C49F7F" transform="translate(68,24)"/>
<path d="M0 0 C7.36757279 -0.40431802 13.23234823 2.7880258 18.796875 7.33203125 C31.67076448 19.56985899 37.24742567 37.37898599 39.72485352 54.62915039 C40.41722784 59.3369516 41.75736268 63.00300662 43.8671875 67.22265625 C45.33811166 70.84998378 45.54582713 74.40015503 44.671875 78.20703125 C42.359375 81.08203125 42.359375 81.08203125 39.671875 83.20703125 C37.41936445 85.19963674 36.58788015 86.39029274 35.296875 89.20703125 C33.44449292 92.62681355 32.17476426 93.62239087 28.671875 95.20703125 C25.859375 95.89453125 25.859375 95.89453125 23.671875 96.20703125 C25.651875 97.19703125 27.631875 98.18703125 29.671875 99.20703125 C29.09179688 100.24150391 29.09179688 100.24150391 28.5 101.296875 C25.24807587 107.16482721 22.30233228 113.03557378 19.671875 119.20703125 C16.041875 119.20703125 12.411875 119.20703125 8.671875 119.20703125 C9.290625 118.19640625 9.909375 117.18578125 10.546875 116.14453125 C12.03398103 113.57307708 12.79837079 111.71008352 13.546875 108.76953125 C15.01354735 104.1250688 17.59977694 100.92639526 20.671875 97.20703125 C19.57875 97.18640625 18.485625 97.16578125 17.359375 97.14453125 C13.671875 96.20703125 13.671875 96.20703125 11.734375 93.33203125 C10.1304552 88.39845517 9.71810252 83.30633451 10.671875 78.20703125 C11.97434808 76.04420898 13.3330727 74.47145564 15.1640625 72.7421875 C20.34270623 67.46963054 19.72457432 59.55400925 19.734375 52.64453125 C19.71861456 51.16530183 19.69966513 49.68608357 19.671875 48.20703125 C18.021875 47.54703125 16.371875 46.88703125 14.671875 46.20703125 C14.671875 45.54703125 14.671875 44.88703125 14.671875 44.20703125 C13.681875 44.86703125 12.691875 45.52703125 11.671875 46.20703125 C9.484375 45.83203125 9.484375 45.83203125 7.671875 45.20703125 C7.671875 44.21703125 7.671875 43.22703125 7.671875 42.20703125 C10.311875 42.20703125 12.951875 42.20703125 15.671875 42.20703125 C15.671875 41.21703125 15.671875 40.22703125 15.671875 39.20703125 C16.331875 39.20703125 16.991875 39.20703125 17.671875 39.20703125 C18.54465739 31.7560557 17.0749317 27.11975923 13.1796875 20.75 C11.72239769 18.2922392 10.66130928 15.88234627 9.671875 13.20703125 C10.331875 12.87703125 10.991875 12.54703125 11.671875 12.20703125 C10.351875 11.21703125 9.031875 10.22703125 7.671875 9.20703125 C8.001875 8.87703125 8.331875 8.54703125 8.671875 8.20703125 C6.691875 7.54703125 4.711875 6.88703125 2.671875 6.20703125 C2.671875 5.54703125 2.671875 4.88703125 2.671875 4.20703125 C2.011875 3.87703125 1.351875 3.54703125 0.671875 3.20703125 C1.331875 2.87703125 1.991875 2.54703125 2.671875 2.20703125 C-3.268125 2.20703125 -9.208125 2.20703125 -15.328125 2.20703125 C-15.328125 1.87703125 -15.328125 1.54703125 -15.328125 1.20703125 C-10.22123105 0.77107689 -5.10484532 0.45395437 0 0 Z " fill="#472B23" transform="translate(62.328125,0.79296875)"/>
<path d="M0 0 C4.75713807 0 7.2103801 0.76561958 10.6875 4.0625 C13.92600609 7.62266358 16.56582159 11.36799135 18 16 C17.75 19 17.75 19 17 21 C14.03 21.495 14.03 21.495 11 22 C12.32 20.68 13.64 19.36 15 18 C12.8553473 11.30070573 12.8553473 11.30070573 8.6875 5.8125 C3.89099731 4.36239453 0.1892453 5.53751572 -4.375 7.3125 C-7.04170519 8.71114255 -7.04170519 8.71114255 -7.875 10.75 C-8.04661461 13.8390629 -8.0594762 16.90723777 -8 20 C-6.88625 20.433125 -5.7725 20.86625 -4.625 21.3125 C-1 23 -1 23 1 26 C1.31884766 28.0847168 1.31884766 28.0847168 1.4140625 30.44921875 C1.47207031 31.72055664 1.47207031 31.72055664 1.53125 33.01757812 C1.5621875 33.89865234 1.593125 34.77972656 1.625 35.6875 C1.68300781 37.02651367 1.68300781 37.02651367 1.7421875 38.39257812 C1.83640218 40.5948462 1.92201588 42.79710722 2 45 C0.33388095 45.042721 -1.33382885 45.04063832 -3 45 C-4 44 -4 44 -4.125 40.375 C-4.08304465 36.50112278 -3.63639059 32.81834356 -3 29 C-3.66 29 -4.32 29 -5 29 C-5 28.34 -5 27.68 -5 27 C-5.66 27 -6.32 27 -7 27 C-7 27.66 -7 28.32 -7 29 C-8.32 29 -9.64 29 -11 29 C-11 29.66 -11 30.32 -11 31 C-12.32 31 -13.64 31 -15 31 C-14.48626589 43.39025336 -14.48626589 43.39025336 -9 54 C-8.67 52.35 -8.34 50.7 -8 49 C-5.36 49 -2.72 49 0 49 C0 49.66 0 50.32 0 51 C0.99 51.33 1.98 51.66 3 52 C2.01 52 1.02 52 0 52 C0.66 53.32 1.32 54.64 2 56 C-0.475 56.495 -0.475 56.495 -3 57 C-2.814375 58.093125 -2.62875 59.18625 -2.4375 60.3125 C-1.75311778 65.60695693 -2.36969274 70.72481308 -3 76 C-3.99 76 -4.98 76 -6 76 C-6 75.01 -6 74.02 -6 73 C-6.66 73 -7.32 73 -8 73 C-7.855625 73.65226562 -7.71125 74.30453125 -7.5625 74.9765625 C-6.55372706 79.72620177 -5.74284694 84.11409188 -6 89 C-6.66 89 -7.32 89 -8 89 C-8.66 86.03 -9.32 83.06 -10 80 C-10.99 80 -11.98 80 -13 80 C-13.99704027 85.94182105 -14.00890038 90.19651 -12 96 C-11.64628502 97.66246041 -11.30404678 99.32774271 -11 101 C-13.97 101 -16.94 101 -20 101 C-21.33819498 98.3773768 -22.6707151 95.75213401 -24 93.125 C-24.3815625 92.37863281 -24.763125 91.63226563 -25.15625 90.86328125 C-25.5171875 90.14785156 -25.878125 89.43242188 -26.25 88.6953125 C-26.75273438 87.7055542 -26.75273438 87.7055542 -27.265625 86.69580078 C-28 85 -28 85 -28 83 C-29.32 82.67 -30.64 82.34 -32 82 C-30.06374902 81.01836578 -28.12595461 80.03977546 -26.1875 79.0625 C-25.10855469 78.51722656 -24.02960937 77.97195312 -22.91796875 77.41015625 C-20 76 -20 76 -17 75 C-12.42987028 68.14480542 -15.61600533 58.39731995 -17.02148438 50.75390625 C-17.76192123 46.47659197 -18.09778399 43.27005684 -17 39 C-17.84077872 36.73142854 -17.84077872 36.73142854 -19 35 C-20.485 35.495 -20.485 35.495 -22 36 C-20.87910964 30.19174995 -19.33149082 24.61750798 -17.5 19 C-17.28641846 18.3289624 -17.07283691 17.6579248 -16.8527832 16.96655273 C-16.29453609 15.29009174 -15.65334454 13.64173756 -15 12 C-14.34 11.67 -13.68 11.34 -13 11 C-11.94978897 9.15028304 -11.94978897 9.15028304 -11 7 C-9.22222222 3.11111111 -9.22222222 3.11111111 -7 2 C-7 2.66 -7 3.32 -7 4 C-3.25332798 2.3672149 -3.25332798 2.3672149 0 0 Z " fill="#54352A" transform="translate(59,19)"/>
<path d="M0 0 C3.125 0.375 3.125 0.375 6 1 C6.19335938 1.83144531 6.38671875 2.66289063 6.5859375 3.51953125 C6.97652344 5.14955078 6.97652344 5.14955078 7.375 6.8125 C7.63023438 7.89144531 7.88546875 8.97039062 8.1484375 10.08203125 C8.88732881 13.15533343 8.88732881 13.15533343 11 16 C11.4671612 18.70953497 11.79185391 21.27044783 12 24 C12.07734375 24.77472656 12.1546875 25.54945312 12.234375 26.34765625 C12.47517606 30.3543183 12.25203164 32.53327474 10.3125 36.125 C4.98695219 39.13946102 -0.17883627 38.48966788 -6 37 C-10.98034599 32.36712001 -11.83704376 25.3970108 -12.15234375 18.82421875 C-12.24223329 10.48446659 -12.24223329 10.48446659 -11 8 C-10.4225 7.896875 -9.845 7.79375 -9.25 7.6875 C-5.95228146 6.67986378 -4.30944877 4.49177367 -2 2 C-1.34 1.34 -0.68 0.68 0 0 Z " fill="#1A1417" transform="translate(33,58)"/>
<path d="M0 0 C7.36757279 -0.40431802 13.23234823 2.7880258 18.796875 7.33203125 C26.41730646 14.57595918 30.40644685 22.37926247 34.046875 32.14453125 C34.56604492 33.52040405 34.56604492 33.52040405 35.09570312 34.92407227 C37.37497403 41.35022309 38.36387623 47.4022349 38.671875 54.20703125 C36.17681538 51.71197163 36.31239124 50.53374237 36.046875 47.08203125 C35.97210938 46.17195313 35.89734375 45.261875 35.8203125 44.32421875 C35.77132812 43.62554687 35.72234375 42.926875 35.671875 42.20703125 C35.011875 42.20703125 34.351875 42.20703125 33.671875 42.20703125 C33.341875 43.85703125 33.011875 45.50703125 32.671875 47.20703125 C30.07249546 44.73762069 27.88166808 42.02642242 25.671875 39.20703125 C25.671875 40.19703125 25.671875 41.18703125 25.671875 42.20703125 C22.36682372 40.65490536 20.92557807 39.82795877 19.51953125 36.38671875 C19.13087891 34.75089844 19.13087891 34.75089844 18.734375 33.08203125 C17.2458672 27.60993495 15.35664937 23.61403745 11.94140625 19.109375 C10.61843491 17.12695334 10.10220937 15.53498466 9.671875 13.20703125 C10.331875 12.87703125 10.991875 12.54703125 11.671875 12.20703125 C10.351875 11.21703125 9.031875 10.22703125 7.671875 9.20703125 C8.001875 8.87703125 8.331875 8.54703125 8.671875 8.20703125 C6.691875 7.54703125 4.711875 6.88703125 2.671875 6.20703125 C2.671875 5.54703125 2.671875 4.88703125 2.671875 4.20703125 C2.011875 3.87703125 1.351875 3.54703125 0.671875 3.20703125 C1.331875 2.87703125 1.991875 2.54703125 2.671875 2.20703125 C-3.268125 2.20703125 -9.208125 2.20703125 -15.328125 2.20703125 C-15.328125 1.87703125 -15.328125 1.54703125 -15.328125 1.20703125 C-10.22123105 0.77107689 -5.10484532 0.45395437 0 0 Z " fill="#5B483F" transform="translate(62.328125,0.79296875)"/>
<path d="M0 0 C0.33 0 0.66 0 1 0 C1.19335938 0.67546875 1.38671875 1.3509375 1.5859375 2.046875 C1.97652344 3.38492188 1.97652344 3.38492188 2.375 4.75 C2.63023438 5.63171875 2.88546875 6.5134375 3.1484375 7.421875 C3.91104378 9.96552308 3.91104378 9.96552308 5.07421875 12.05078125 C6.74907218 15.5771604 6.67959445 19.201067 6 23 C3.6875 25.875 3.6875 25.875 1 28 C-1.25251055 29.99260549 -2.08399485 31.18326149 -3.375 34 C-5.22738208 37.4197823 -6.49711074 38.41535962 -10 40 C-12.8125 40.6875 -12.8125 40.6875 -15 41 C-13.02 41.99 -11.04 42.98 -9 44 C-9.38671875 44.68964844 -9.7734375 45.37929687 -10.171875 46.08984375 C-13.42379913 51.95779596 -16.36954272 57.82854253 -19 64 C-22.63 64 -26.26 64 -30 64 C-29.38125 62.989375 -28.7625 61.97875 -28.125 60.9375 C-26.63789397 58.36604583 -25.87350421 56.50305227 -25.125 53.5625 C-23.65832765 48.91803755 -21.07209806 45.71936401 -18 42 C-19.6396875 41.9690625 -19.6396875 41.9690625 -21.3125 41.9375 C-25 41 -25 41 -26.9375 38.125 C-28.61206531 33.234044 -28.24887728 28.09737546 -28 23 C-27.34 22.67 -26.68 22.34 -26 22 C-25.96261719 22.80824219 -25.92523438 23.61648437 -25.88671875 24.44921875 C-25.82097656 25.51785156 -25.75523438 26.58648437 -25.6875 27.6875 C-25.62949219 28.74324219 -25.57148437 29.79898438 -25.51171875 30.88671875 C-24.96217936 34.23009964 -23.91325982 36.23526262 -22 39 C-17.52116304 38.55296014 -17.52116304 38.55296014 -14 36 C-14.495 34.515 -14.495 34.515 -15 33 C-15.66 33 -16.32 33 -17 33 C-17.95595136 28.22024321 -18.23869279 23.85342006 -18 19 C-17.34 18.01 -16.68 17.02 -16 16 C-15.01 16 -14.02 16 -13 16 C-13.165 16.66 -13.33 17.32 -13.5 18 C-14.14531897 21.87191384 -14.31250143 25.06248195 -14 29 C-12.16658535 31.50520579 -12.16658535 31.50520579 -10 33 C-10.33 31.68 -10.66 30.36 -11 29 C-10.01 29 -9.02 29 -8 29 C-8.20625 27.7625 -8.4125 26.525 -8.625 25.25 C-8.95367812 22.59709805 -9.04594933 21.14933534 -8.25 18.5625 C-7 17 -7 17 -4 16 C-3.92652344 17.17369141 -3.92652344 17.17369141 -3.8515625 18.37109375 C-3.77679688 19.38300781 -3.70203125 20.39492187 -3.625 21.4375 C-3.55539063 22.44683594 -3.48578125 23.45617187 -3.4140625 24.49609375 C-3.27742188 25.32238281 -3.14078125 26.14867188 -3 27 C-2.34 27.33 -1.68 27.66 -1 28 C-0.855625 26.865625 -0.71125 25.73125 -0.5625 24.5625 C0 21 0 21 1 20 C1.30523962 15.34911285 1.30523962 15.34911285 0 11 C-0.07033769 9.12620395 -0.0843022 7.24998898 -0.0625 5.375 C-0.05347656 4.37210938 -0.04445313 3.36921875 -0.03515625 2.3359375 C-0.02355469 1.56507812 -0.01195313 0.79421875 0 0 Z " fill="#523529" transform="translate(101,56)"/>
<path d="M0 0 C4.34163286 2.77382099 5.20400306 7.04313736 6.58203125 11.7578125 C7 14 7 14 6 16 C7.32 16 8.64 16 10 16 C10 16.99 10 17.98 10 19 C6.04 19.495 6.04 19.495 2 20 C2.33 20.66 2.66 21.32 3 22 C4.98 21.67 6.96 21.34 9 21 C9 21.66 9 22.32 9 23 C9.804375 23.144375 10.60875 23.28875 11.4375 23.4375 C14 24 14 24 15 25 C15.43041732 31.38030379 14.81578949 37.67763143 14 44 C13.87625 43.360625 13.7525 42.72125 13.625 42.0625 C13.41875 41.381875 13.2125 40.70125 13 40 C12.01 39.505 12.01 39.505 11 39 C11.495 38.01 11.495 38.01 12 37 C12.09472912 35.48154798 12.1298841 33.95889616 12.125 32.4375 C12.12757812 31.63183594 12.13015625 30.82617188 12.1328125 29.99609375 C12.22011391 28.00057979 12.22011391 28.00057979 11 27 C8.48393551 26.75650989 5.96913976 26.61636634 3.4453125 26.4765625 C0.6131926 25.92461581 -0.30518951 25.30126025 -2 23 C-2.6875 19.8125 -2.6875 19.8125 -3 17 C2.75 14 2.75 14 5 14 C4.38144369 12.3725363 3.75492695 10.74809644 3.125 9.125 C2.77695313 8.22007813 2.42890625 7.31515625 2.0703125 6.3828125 C1.11469105 3.87782993 1.11469105 3.87782993 -1 2 C-2.91180549 1.71994942 -2.91180549 1.71994942 -5 1.8125 C-6.051875 1.82216797 -6.051875 1.82216797 -7.125 1.83203125 C-9.09056373 1.89293867 -9.09056373 1.89293867 -11 3 C-12.41644354 7.09194801 -13.26260116 10.66708088 -13 15 C-11.02 15.99 -9.04 16.98 -7 18 C-7 24.27 -7 30.54 -7 37 C-6.34 37 -5.68 37 -5 37 C-5 38.65 -5 40.3 -5 42 C-5.99 42 -6.98 42 -8 42 C-8 42.66 -8 43.32 -8 44 C-4.535 44.495 -4.535 44.495 -1 45 C-1 45.66 -1 46.32 -1 47 C-3.64 47.66 -6.28 48.32 -9 49 C-9 47.35 -9 45.7 -9 44 C-11.64 44 -14.28 44 -17 44 C-16.67 45.32 -16.34 46.64 -16 48 C-16.99 48.66 -17.98 49.32 -19 50 C-21.62972146 46.09973895 -22.78046395 42.59045641 -23.75 38 C-24.01296875 36.80375 -24.2759375 35.6075 -24.546875 34.375 C-24.97481436 31.18758958 -24.85973848 29.06717512 -24 26 C-22.68 26 -21.36 26 -20 26 C-20 25.34 -20 24.68 -20 24 C-18.68 24 -17.36 24 -16 24 C-16 23.34 -16 22.68 -16 22 C-15.34 22 -14.68 22 -14 22 C-14 22.66 -14 23.32 -14 24 C-13.34 24 -12.68 24 -12 24 C-12 28.95 -12 33.9 -12 39 C-10.35 39.33 -8.7 39.66 -7 40 C-7.33 39.34 -7.66 38.68 -8 38 C-8.23245299 34.40251332 -8.39500287 30.8115009 -8.51757812 27.20898438 C-8.69367909 23.3513764 -8.81525205 21.27712193 -11 18 C-13.30144109 16.92863949 -15.6340213 15.92010283 -18 15 C-18.33506301 6.45589325 -18.33506301 6.45589325 -16 3 C-10.78101969 -0.39665041 -6.11489973 -1.91839991 0 0 Z " fill="#704634" transform="translate(68,24)"/>
<path d="M0 0 C2.83709414 1.71718856 3.73427696 3.11272941 4.6796875 6.26953125 C5.19405261 8.50666718 5.63211421 10.73459806 6 13 C0.25 16 0.25 16 -2 16 C-0.48134786 20.29888613 -0.48134786 20.29888613 2 24 C4.54756104 24.28306234 7.09510022 24.44815786 9.65234375 24.62109375 C12 25 12 25 14 27 C14.23046875 29.12890625 14.23046875 29.12890625 14.1875 31.5625 C14.18105469 32.36816406 14.17460938 33.17382812 14.16796875 34.00390625 C14 36 14 36 13 37 C5.58823529 36.29411765 5.58823529 36.29411765 3 35 C3.33 35.66 3.66 36.32 4 37 C4.039992 38.99960012 4.04346799 41.00047242 4 43 C1.69 43 -0.62 43 -3 43 C-3 41.35 -3 39.7 -3 38 C-2.01 38 -1.02 38 0 38 C0 37.34 0 36.68 0 36 C-0.61875 36.185625 -1.2375 36.37125 -1.875 36.5625 C-4 37 -4 37 -6 36 C-6 29.73 -6 23.46 -6 17 C-7.98 16.34 -9.96 15.68 -12 15 C-12.33 14.67 -12.66 14.34 -13 14 C-12.94921875 12.07421875 -12.94921875 12.07421875 -12.6875 9.6875 C-12.60886719 8.90761719 -12.53023437 8.12773438 -12.44921875 7.32421875 C-11.977499 4.88358177 -11.29454886 3.11707811 -10 1 C-6.78992389 -0.60503806 -3.48232692 -0.46983776 0 0 Z " fill="#E3BFA6" transform="translate(67,25)"/>
<path d="M0 0 C10.10383407 1.71251425 19.9233149 5.27571625 29 10 C29 12.64 29 15.28 29 18 C16.46 18 3.92 18 -9 18 C-8.05651016 13.28255082 -6.92798371 10.79000569 -4.5 6.75 C-3.8709375 5.69296875 -3.241875 4.6359375 -2.59375 3.546875 C-1 1 -1 1 0 0 Z " fill="#D0D2D5" transform="translate(91,102)"/>
<path d="M0 0 C4.75713807 0 7.2103801 0.76561958 10.6875 4.0625 C13.92600609 7.62266358 16.56582159 11.36799135 18 16 C17.75 19 17.75 19 17 21 C14.03 21.495 14.03 21.495 11 22 C12.32 20.68 13.64 19.36 15 18 C12.8553473 11.30070573 12.8553473 11.30070573 8.6875 5.8125 C3.89099731 4.36239453 0.1892453 5.53751572 -4.375 7.3125 C-7.04170519 8.71114255 -7.04170519 8.71114255 -7.875 10.75 C-8.04661461 13.8390629 -8.0594762 16.90723777 -8 20 C-6.88625 20.433125 -5.7725 20.86625 -4.625 21.3125 C-1 23 -1 23 1 26 C1.31884766 28.0847168 1.31884766 28.0847168 1.4140625 30.44921875 C1.45273437 31.29677734 1.49140625 32.14433594 1.53125 33.01757812 C1.5621875 33.89865234 1.593125 34.77972656 1.625 35.6875 C1.66367187 36.58017578 1.70234375 37.47285156 1.7421875 38.39257812 C1.83640218 40.5948462 1.92201588 42.79710722 2 45 C0.33388095 45.042721 -1.33382885 45.04063832 -3 45 C-4 44 -4 44 -4.125 40.375 C-4.08304465 36.50112278 -3.63639059 32.81834356 -3 29 C-3.66 29 -4.32 29 -5 29 C-5 28.34 -5 27.68 -5 27 C-5.66 27 -6.32 27 -7 27 C-7 27.66 -7 28.32 -7 29 C-8.32 29 -9.64 29 -11 29 C-11 29.66 -11 30.32 -11 31 C-13.31 31 -15.62 31 -18 31 C-18.103125 31.639375 -18.20625 32.27875 -18.3125 32.9375 C-18.539375 33.618125 -18.76625 34.29875 -19 35 C-20.485 35.495 -20.485 35.495 -22 36 C-20.87910964 30.19174995 -19.33149082 24.61750798 -17.5 19 C-17.28641846 18.3289624 -17.07283691 17.6579248 -16.8527832 16.96655273 C-16.29453609 15.29009174 -15.65334454 13.64173756 -15 12 C-14.34 11.67 -13.68 11.34 -13 11 C-11.94978897 9.15028304 -11.94978897 9.15028304 -11 7 C-9.22222222 3.11111111 -9.22222222 3.11111111 -7 2 C-7 2.66 -7 3.32 -7 4 C-3.25332798 2.3672149 -3.25332798 2.3672149 0 0 Z " fill="#3D2823" transform="translate(59,19)"/>
<path d="M0 0 C3.26533024 3.17462662 6.16918628 6.43865371 9 10 C10.31494512 11.35147138 11.64264858 12.69112542 13 14 C12.01 16.31 11.02 18.62 10 21 C7 19 7 19 6 17 C5.01 17.33 4.02 17.66 3 18 C2.87625 18.7425 2.7525 19.485 2.625 20.25 C2 23 2 23 0.96875 24.71875 C-0.40154251 27.94556784 -0.18956996 30.76322226 -0.125 34.25 C-0.09792969 36.14492187 -0.09792969 36.14492187 -0.0703125 38.078125 C-0.04710938 39.04234375 -0.02390625 40.0065625 0 41 C0.66 41 1.32 41 2 41 C2.66 42.32 3.32 43.64 4 45 C1.33257086 46.90530653 -0.30115596 48 -3.625 48 C-6.86392326 46.63624284 -7.47848627 45.13785268 -9 42 C-9.43359375 38.84375 -9.43359375 38.84375 -9.4375 35.5 C-9.45683594 34.3965625 -9.47617188 33.293125 -9.49609375 32.15625 C-8.89745577 28.34759263 -7.53939081 26.83730817 -5 24 C-3.23636153 21.0681637 -2.70153209 18.71121092 -2.4375 15.3125 C-2.09964413 11.09964413 -2.09964413 11.09964413 -1 10 C-0.76712992 8.31816052 -0.58735834 6.6287584 -0.4375 4.9375 C-0.35371094 4.01839844 -0.26992187 3.09929688 -0.18359375 2.15234375 C-0.12300781 1.44207031 -0.06242187 0.73179688 0 0 Z " fill="#2A1C1C" transform="translate(84,48)"/>
<path d="M0 0 C2.475 0.495 2.475 0.495 5 1 C4.67 1.99 4.34 2.98 4 4 C2.02 4 0.04 4 -2 4 C-0.86500606 7.29148243 -0.00716624 7.9959869 3.125 9.75 C4.07375 10.1625 5.0225 10.575 6 11 C3 13 3 13 0 13 C-0.06058594 13.97582031 -0.12117188 14.95164062 -0.18359375 15.95703125 C-0.26738281 17.22933594 -0.35117187 18.50164062 -0.4375 19.8125 C-0.51871094 21.07707031 -0.59992187 22.34164062 -0.68359375 23.64453125 C-1 27 -1 27 -2 30 C-2.99 29.67 -3.98 29.34 -5 29 C-5.103125 30.051875 -5.20625 31.10375 -5.3125 32.1875 C-6 36 -6 36 -7.625 38.5625 C-9.42453172 41.75257896 -8.88670682 43.53378245 -8 47 C-9.32 47 -10.64 47 -12 47 C-15.53106816 41.47311071 -16.19024517 35.50457312 -16 29 C-15.01171875 26.6328125 -15.01171875 26.6328125 -14 25 C-12.0625 25.375 -12.0625 25.375 -10 26 C-8.5216774 28.95664519 -8.93967217 31.74229737 -9 35 C-8.34 35 -7.68 35 -7 35 C-7.144375 34.34773438 -7.28875 33.69546875 -7.4375 33.0234375 C-8.44627294 28.27379823 -9.25715306 23.88590812 -9 19 C-8.34 19 -7.68 19 -7 19 C-6.34 19.99 -5.68 20.98 -5 22 C-4.67 15.73 -4.34 9.46 -4 3 C-2.68 2.34 -1.36 1.68 0 1 C0 0.67 0 0.34 0 0 Z " fill="#91664B" transform="translate(60,73)"/>
<path d="M0 0 C2.83709414 1.71718856 3.73427696 3.11272941 4.6796875 6.26953125 C5.19405261 8.50666718 5.63211421 10.73459806 6 13 C0.25 16 0.25 16 -2 16 C-1.67 17.98 -1.34 19.96 -1 22 C-1.33 21.01 -1.66 20.02 -2 19 C-2.99 19 -3.98 19 -5 19 C-5 24.61 -5 30.22 -5 36 C-5.33 36 -5.66 36 -6 36 C-6 29.73 -6 23.46 -6 17 C-7.98 16.34 -9.96 15.68 -12 15 C-12.33 14.67 -12.66 14.34 -13 14 C-12.94921875 12.07421875 -12.94921875 12.07421875 -12.6875 9.6875 C-12.60886719 8.90761719 -12.53023437 8.12773438 -12.44921875 7.32421875 C-11.977499 4.88358177 -11.29454886 3.11707811 -10 1 C-6.78992389 -0.60503806 -3.48232692 -0.46983776 0 0 Z " fill="#D2A78A" transform="translate(67,25)"/>
<path d="M0 0 C3.3 0.66 6.6 1.32 10 2 C10.83478335 5.79446979 11.21777928 8.33305096 10 12.0625 C7.83277534 15.24561122 5.53238357 17.34167366 2.5234375 19.703125 C0.86534396 20.94333073 0.86534396 20.94333073 0 23 C-1.98 23 -3.96 23 -6 23 C-6 22.01 -6 21.02 -6 20 C-6.66 20 -7.32 20 -8 20 C-8 19.34 -8 18.68 -8 18 C-7.34 18 -6.68 18 -6 18 C-5.67 16.68 -5.34 15.36 -5 14 C-6.65 13.67 -8.3 13.34 -10 13 C-7.35261084 11.5393715 -6.10551666 11 -3 11 C-3 10.34 -3 9.68 -3 9 C-5.31 8.67 -7.62 8.34 -10 8 C-10 7.34 -10 6.68 -10 6 C-9.01 6 -8.02 6 -7 6 C-7 4.68 -7 3.36 -7 2 C-5.68 1.67 -4.36 1.34 -3 1 C-3 1.66 -3 2.32 -3 3 C-3.99 3 -4.98 3 -6 3 C-6 4.65 -6 6.3 -6 8 C-3.69 8 -1.38 8 1 8 C0.67 5.36 0.34 2.72 0 0 Z " fill="#CEA281" transform="translate(70,60)"/>
<path d="M0 0 C4.34163286 2.77382099 5.20400306 7.04313736 6.58203125 11.7578125 C7 14 7 14 6 16 C7.32 16 8.64 16 10 16 C10 16.99 10 17.98 10 19 C6.04 19.495 6.04 19.495 2 20 C2.33 20.66 2.66 21.32 3 22 C4.98 21.67 6.96 21.34 9 21 C9 21.66 9 22.32 9 23 C9.804375 23.144375 10.60875 23.28875 11.4375 23.4375 C14 24 14 24 15 25 C15.43041732 31.38030379 14.81578949 37.67763143 14 44 C13.87625 43.360625 13.7525 42.72125 13.625 42.0625 C13.41875 41.381875 13.2125 40.70125 13 40 C12.34 39.67 11.68 39.34 11 39 C11.33 38.34 11.66 37.68 12 37 C12.09472912 35.48154798 12.1298841 33.95889616 12.125 32.4375 C12.12757812 31.63183594 12.13015625 30.82617188 12.1328125 29.99609375 C12.22011391 28.00057979 12.22011391 28.00057979 11 27 C8.48393551 26.75650989 5.96913976 26.61636634 3.4453125 26.4765625 C0.6131926 25.92461581 -0.30518951 25.30126025 -2 23 C-2.6875 19.8125 -2.6875 19.8125 -3 17 C2.75 14 2.75 14 5 14 C4.38144369 12.3725363 3.75492695 10.74809644 3.125 9.125 C2.77695313 8.22007813 2.42890625 7.31515625 2.0703125 6.3828125 C1.11469105 3.87782993 1.11469105 3.87782993 -1 2 C-2.91180549 1.71994942 -2.91180549 1.71994942 -5 1.8125 C-6.051875 1.82216797 -6.051875 1.82216797 -7.125 1.83203125 C-9.09056373 1.89293867 -9.09056373 1.89293867 -11 3 C-12.41644354 7.09194801 -13.26260116 10.66708088 -13 15 C-11.02 15.99 -9.04 16.98 -7 18 C-7 20.97 -7 23.94 -7 27 C-7.33 27 -7.66 27 -8 27 C-8.2475 25.14375 -8.2475 25.14375 -8.5 23.25 C-9.16543521 20.44921299 -9.57582871 19.31509867 -11.9140625 17.578125 C-13.91685437 16.60149857 -15.89985254 15.74237771 -18 15 C-18.33506301 6.45589325 -18.33506301 6.45589325 -16 3 C-10.78101969 -0.39665041 -6.11489973 -1.91839991 0 0 Z " fill="#AA7D62" transform="translate(68,24)"/>
<path d="M0 0 C3.25696479 0.41755959 4.63443291 0.63443291 7 3 C6.67 3.99 6.34 4.98 6 6 C7.98 5.34 9.96 4.68 12 4 C12.33 4.99 12.66 5.98 13 7 C12.01 7.66 11.02 8.32 10 9 C9.20562077 11.18505129 9.20562077 11.18505129 8.8125 13.625 C8.544375 15.06875 8.27625 16.5125 8 18 C2.39 18 -3.22 18 -9 18 C-8.05651016 13.28255082 -6.92798371 10.79000569 -4.5 6.75 C-3.8709375 5.69296875 -3.241875 4.6359375 -2.59375 3.546875 C-1 1 -1 1 0 0 Z " fill="#D5DBE1" transform="translate(91,102)"/>
<path d="M0 0 C0.66 0 1.32 0 2 0 C3.33662778 1.85003448 4.59469558 3.75717521 5.8125 5.6875 C8.55467542 10.03148776 11.2843388 13.50481434 15 17 C15 15.02 15 13.04 15 11 C19.22844485 19.32415824 21.64249043 26.59749819 22 36 C19.50494038 33.50494038 19.64051624 32.32671112 19.375 28.875 C19.30023438 27.96492188 19.22546875 27.05484375 19.1484375 26.1171875 C19.09945312 25.41851562 19.05046875 24.71984375 19 24 C18.34 24 17.68 24 17 24 C16.67 25.65 16.34 27.3 16 29 C13.40062046 26.53058944 11.20979308 23.81939117 9 21 C9 21.99 9 22.98 9 24 C6.31670279 22.87518349 4.44487097 21.88078644 3.10253906 19.22314453 C2.34548856 17.0203022 1.71525375 14.81568019 1.125 12.5625 C0.78855469 11.4168457 0.78855469 11.4168457 0.4453125 10.24804688 C-0.63152788 6.38151688 -1.23221921 3.9111227 0 0 Z " fill="#604B3D" transform="translate(79,19)"/>
<path d="M0 0 C5.75 1.75 5.75 1.75 8 4 C7.36191406 5.12019531 6.72382812 6.24039063 6.06640625 7.39453125 C5.23163275 8.86710923 4.39700491 10.33976979 3.5625 11.8125 C3.14162109 12.55048828 2.72074219 13.28847656 2.28710938 14.04882812 C1.68286133 15.11713867 1.68286133 15.11713867 1.06640625 16.20703125 C0.69459229 16.8616333 0.32277832 17.51623535 -0.06030273 18.19067383 C-1.1354657 20.14536412 -1.1354657 20.14536412 -2 23 C-5.63 23 -9.26 23 -13 23 C-12.38125 21.989375 -11.7625 20.97875 -11.125 19.9375 C-9.64007824 17.37356935 -8.89587924 15.56749839 -8.1875 12.625 C-6.52826435 7.55996487 -3.41503349 4.02681757 0 0 Z " fill="#355C74" transform="translate(84,97)"/>
<path d="M0 0 C1.33819498 2.6226232 2.6707151 5.24786599 4 7.875 C4.3815625 8.62136719 4.763125 9.36773437 5.15625 10.13671875 C5.5171875 10.85214844 5.878125 11.56757812 6.25 12.3046875 C6.58515625 12.96452637 6.9203125 13.62436523 7.265625 14.30419922 C8 16 8 16 8 18 C3.38 18 -1.24 18 -6 18 C-6 15.03 -6 12.06 -6 9 C-6.99 9.33 -7.98 9.66 -9 10 C-9.66 7.36 -10.32 4.72 -11 2 C-7.35157547 -0.3349917 -4.23895694 -0.07914039 0 0 Z " fill="#8F969E" transform="translate(31,102)"/>
<path d="M0 0 C3 1.4375 3 1.4375 6 4 C6.53698855 7.05872891 6.35474551 9.92553889 6 13 C8.38564077 12.42415568 10.66682784 11.77772405 13 11 C13.33 10.01 13.66 9.02 14 8 C16.31 8 18.62 8 21 8 C20.46752511 11.83381922 19.92782048 14.38270593 17 17 C13.76249979 17.51026031 10.57953652 17.37427644 7.3125 17.25 C6.41982422 17.23195313 5.52714844 17.21390625 4.60742188 17.1953125 C2.40386496 17.14817759 0.20247399 17.08240657 -2 17 C-3.08203125 14.15625 -3.08203125 14.15625 -4 11 C-2.6875 8.5 -2.6875 8.5 -1 6 C-0.28598768 2.80604974 -0.28598768 2.80604974 0 0 Z " fill="#C0916F" transform="translate(54,103)"/>
<path d="M0 0 C11 16.01231527 11 16.01231527 11 23 C8.03 23 5.06 23 2 23 C0.66180502 20.3773768 -0.6707151 17.75213401 -2 15.125 C-2.3815625 14.37863281 -2.763125 13.63226563 -3.15625 12.86328125 C-3.5171875 12.14785156 -3.878125 11.43242188 -4.25 10.6953125 C-4.58515625 10.03547363 -4.9203125 9.37563477 -5.265625 8.69580078 C-6 7 -6 7 -6 5 C-7.32 4.67 -8.64 4.34 -10 4 C-8.71086513 3.32845067 -7.41859796 2.66291141 -6.125 2 C-5.40570312 1.62875 -4.68640625 1.2575 -3.9453125 0.875 C-2 0 -2 0 0 0 Z " fill="#1E2734" transform="translate(37,97)"/>
<path d="M0 0 C3.26533024 3.17462662 6.16918628 6.43865371 9 10 C10.31494512 11.35147138 11.64264858 12.69112542 13 14 C12.01 16.31 11.02 18.62 10 21 C7 19 7 19 6 17 C5.01 17.33 4.02 17.66 3 18 C2.26676204 20.01508358 2.26676204 20.01508358 2 22 C0.35 22.33 -1.3 22.66 -3 23 C-2.85966889 21.02043559 -2.7125877 19.04134859 -2.5625 17.0625 C-2.48128906 15.96035156 -2.40007812 14.85820313 -2.31640625 13.72265625 C-2 11 -2 11 -1 10 C-0.76712992 8.31816052 -0.58735834 6.6287584 -0.4375 4.9375 C-0.31181641 3.55884766 -0.31181641 3.55884766 -0.18359375 2.15234375 C-0.12300781 1.44207031 -0.06242187 0.73179688 0 0 Z " fill="#1D1518" transform="translate(84,48)"/>
<path d="M0 0 C0.33 0 0.66 0 1 0 C1.19335938 0.67546875 1.38671875 1.3509375 1.5859375 2.046875 C1.84632812 2.93890625 2.10671875 3.8309375 2.375 4.75 C2.63023438 5.63171875 2.88546875 6.5134375 3.1484375 7.421875 C3.91104378 9.96552308 3.91104378 9.96552308 5.07421875 12.05078125 C6.74907218 15.5771604 6.67959445 19.201067 6 23 C3.6875 25.875 3.6875 25.875 1 28 C-1.06793593 29.99134571 -2.37169501 31.55754252 -4 34 C-7.465 32.02 -7.465 32.02 -11 30 C-10.01 29.67 -9.02 29.34 -8 29 C-8.20625 27.7625 -8.4125 26.525 -8.625 25.25 C-8.95367812 22.59709805 -9.04594933 21.14933534 -8.25 18.5625 C-7 17 -7 17 -4 16 C-3.92652344 17.17369141 -3.92652344 17.17369141 -3.8515625 18.37109375 C-3.77679688 19.38300781 -3.70203125 20.39492187 -3.625 21.4375 C-3.55539063 22.44683594 -3.48578125 23.45617187 -3.4140625 24.49609375 C-3.27742188 25.32238281 -3.14078125 26.14867188 -3 27 C-2.34 27.33 -1.68 27.66 -1 28 C-0.855625 26.865625 -0.71125 25.73125 -0.5625 24.5625 C0 21 0 21 1 20 C1.30523962 15.34911285 1.30523962 15.34911285 0 11 C-0.07033769 9.12620395 -0.0843022 7.24998898 -0.0625 5.375 C-0.05347656 4.37210938 -0.04445313 3.36921875 -0.03515625 2.3359375 C-0.02355469 1.56507812 -0.01195313 0.79421875 0 0 Z " fill="#614333" transform="translate(101,56)"/>
<path d="M0 0 C1.27310312 0.93441535 2.543388 1.87267111 3.8125 2.8125 C4.52019531 3.33457031 5.22789063 3.85664062 5.95703125 4.39453125 C6.63121094 4.92433594 7.30539063 5.45414062 8 6 C8.86625 6.680625 8.86625 6.680625 9.75 7.375 C11.51862761 9.67421589 11.29884777 11.329574 11.1875 14.1875 C11.16042969 15.08855469 11.13335937 15.98960938 11.10546875 16.91796875 C11.07066406 17.60503906 11.03585938 18.29210937 11 19 C8.58554629 15.97060499 7.53707764 13.86695903 7 10 C6.01 10.495 6.01 10.495 5 11 C4.55742344 12.83839495 4.1197153 14.67810233 3.70703125 16.5234375 C2.36220464 21.23404562 0.12072572 25.59666111 -2 30 C-4.0245738 28.06745228 -5.42105792 26.36841312 -7 24 C-6.625 21.8125 -6.625 21.8125 -6 20 C-5.38125 19.896875 -4.7625 19.79375 -4.125 19.6875 C-1.63473516 19.12474627 -1.63473516 19.12474627 0 16 C0.14245897 13.23344676 0.18769445 10.57346694 0.125 7.8125 C0.11597656 7.06291016 0.10695313 6.31332031 0.09765625 5.54101562 C0.07412578 3.69387346 0.03825561 1.84689588 0 0 Z " fill="#422A22" transform="translate(44,75)"/>
<path d="M0 0 C1.5 1.375 1.5 1.375 3 3 C3 3.66 3 4.32 3 5 C3.99 5.33 4.98 5.66 6 6 C7.6875 8.0625 7.6875 8.0625 9 10 C9.33 8.68 9.66 7.36 10 6 C10.66 6 11.32 6 12 6 C14.04061541 13.17859349 15.37369729 19.52605426 15 27 C13.30480728 25.35617676 11.64449441 23.69395289 10 22 C9.43410156 21.41863281 8.86820313 20.83726563 8.28515625 20.23828125 C3.69857013 15.29038856 0.73516195 10.15096328 -2 4 C-1.01 4 -0.02 4 1 4 C0.67 2.68 0.34 1.36 0 0 Z " fill="#452F25" transform="translate(86,37)"/>
<path d="M0 0 C4.75713807 0 7.2103801 0.76561958 10.6875 4.0625 C13.92600609 7.62266358 16.56582159 11.36799135 18 16 C17.75 19 17.75 19 17 21 C15.02 21.33 13.04 21.66 11 22 C12.32 20.68 13.64 19.36 15 18 C12.8553473 11.30070573 12.8553473 11.30070573 8.6875 5.8125 C4.00542146 4.39698788 0.29521498 5.65786774 -4.3125 6.875 C-8.1491786 9.90865284 -8.15133745 12.99687424 -8.7734375 17.69921875 C-8.84820312 18.45847656 -8.92296875 19.21773437 -9 20 C-9.99 20 -10.98 20 -12 20 C-12.20606587 14.23015553 -11.80464178 9.50890648 -10 4 C-9.01 3.34 -8.02 2.68 -7 2 C-7 2.66 -7 3.32 -7 4 C-3.25332798 2.3672149 -3.25332798 2.3672149 0 0 Z " fill="#47312A" transform="translate(59,19)"/>
<path d="M0 0 C0.99 1.32 1.98 2.64 3 4 C1.35 4.33 -0.3 4.66 -2 5 C-1.814375 6.093125 -1.62875 7.18625 -1.4375 8.3125 C-0.75311778 13.60695693 -1.36969274 18.72481308 -2 24 C-2.99 24 -3.98 24 -5 24 C-5 23.01 -5 22.02 -5 21 C-5.66 21 -6.32 21 -7 21 C-6.855625 21.65226562 -6.71125 22.30453125 -6.5625 22.9765625 C-5.55372706 27.72620177 -4.74284694 32.11409188 -5 37 C-5.66 37 -6.32 37 -7 37 C-7.66 34.03 -8.32 31.06 -9 28 C-9.99 28 -10.98 28 -12 28 C-12.06058594 28.60328125 -12.12117188 29.2065625 -12.18359375 29.828125 C-12.26738281 30.62734375 -12.35117187 31.4265625 -12.4375 32.25 C-12.55931641 33.43335937 -12.55931641 33.43335937 -12.68359375 34.640625 C-12.97634993 36.82364639 -13.42064419 38.8773182 -14 41 C-15.66213011 38.42083259 -16.54093529 36.97618357 -17 34 C-16.08895667 31.07321827 -14.822582 28.5233962 -13.41796875 25.80078125 C-11.48215008 21.97713942 -10.27267443 18.08595474 -9 14 C-8.34 14 -7.68 14 -7 14 C-6.01 15.98 -5.02 17.96 -4 20 C-3.97284617 18.25008666 -3.95353449 16.50005055 -3.9375 14.75 C-3.92589844 13.77546875 -3.91429687 12.8009375 -3.90234375 11.796875 C-3.98804423 9.34241322 -4.29293934 7.33831086 -5 5 C-3.35 4.67 -1.7 4.34 0 4 C0 2.68 0 1.36 0 0 Z " fill="#5F3D2E" transform="translate(58,71)"/>
<path d="M0 0 C1.93627769 -0.10807131 3.87427756 -0.1856225 5.8125 -0.25 C7.43091797 -0.31960937 7.43091797 -0.31960937 9.08203125 -0.390625 C12 0 12 0 13.84375 1.40625 C15.63436465 5.42303421 15.57497472 9.39687927 15.6875 13.75 C15.73874023 15.08224609 15.73874023 15.08224609 15.79101562 16.44140625 C15.87328714 18.62747803 15.94250172 20.81315951 16 23 C14.33388095 23.042721 12.66617115 23.04063832 11 23 C10 22 10 22 9.875 18.375 C9.91695535 14.50112278 10.36360941 10.81834356 11 7 C10.34 7 9.68 7 9 7 C9 6.34 9 5.68 9 5 C8.34 5 7.68 5 7 5 C6.67 5.66 6.34 6.32 6 7 C5.67 6.01 5.34 5.02 5 4 C2.03 3.505 2.03 3.505 -1 3 C-0.67 2.01 -0.34 1.02 0 0 Z " fill="#5B362B" transform="translate(45,41)"/>
<path d="M0 0 C3.65316671 1.24976756 4.78065836 1.67098753 7 5 C7.625 7.1875 7.625 7.1875 8 9 C8 8.34 8 7.68 8 7 C8.66 7 9.32 7 10 7 C10.2475 7.639375 10.495 8.27875 10.75 8.9375 C11.78813195 11.19635114 11.78813195 11.19635114 14 11.5 C16 12 16 12 17.25 13.8125 C18 16 18 16 18 20 C19.65 20.33 21.3 20.66 23 21 C23 23.31 23 25.62 23 28 C19.26523283 26.75507761 18.6552962 25.41571777 16.5 22.1875 C13.97731428 18.43147395 13.97731428 18.43147395 11.28125 14.80078125 C10 13 10 13 10 11 C9.34 11 8.68 11 8 11 C8 13.31 8 15.62 8 18 C4.6497537 14.18765077 2.83025211 10.66714289 1 6 C1.66 5.67 2.32 5.34 3 5 C1.68 4.01 0.36 3.02 -1 2 C-0.67 1.34 -0.34 0.68 0 0 Z " fill="#5E4335" transform="translate(71,8)"/>
<path d="M0 0 C4.88770756 3.12270205 5.66056791 8.68286049 7 14 C5.68 14.33 4.36 14.66 3 15 C3.66 14.67 4.32 14.34 5 14 C4.38144369 12.3725363 3.75492695 10.74809644 3.125 9.125 C2.77695313 8.22007813 2.42890625 7.31515625 2.0703125 6.3828125 C1.11469105 3.87782993 1.11469105 3.87782993 -1 2 C-2.91180549 1.71994942 -2.91180549 1.71994942 -5 1.8125 C-6.051875 1.82216797 -6.051875 1.82216797 -7.125 1.83203125 C-9.09056373 1.89293867 -9.09056373 1.89293867 -11 3 C-12.41644354 7.09194801 -13.26260116 10.66708088 -13 15 C-11.02 15.99 -9.04 16.98 -7 18 C-7 20.97 -7 23.94 -7 27 C-7.33 27 -7.66 27 -8 27 C-8.2475 25.14375 -8.2475 25.14375 -8.5 23.25 C-9.16543521 20.44921299 -9.57582871 19.31509867 -11.9140625 17.578125 C-13.91685437 16.60149857 -15.89985254 15.74237771 -18 15 C-18.33506301 6.45589325 -18.33506301 6.45589325 -16 3 C-10.78101969 -0.39665041 -6.11489973 -1.91839991 0 0 Z " fill="#B18465" transform="translate(68,24)"/>
<path d="M0 0 C0.99 0 1.98 0 3 0 C3.680625 1.423125 3.680625 1.423125 4.375 2.875 C5.80238254 6.00313679 5.80238254 6.00313679 8 8 C8.125 11.125 8.125 11.125 8 14 C7.01 14 6.02 14 5 14 C5 14.99 5 15.98 5 17 C3.0625 17.5625 3.0625 17.5625 1 18 C0 17 0 17 -0.09765625 13.18359375 C-0.09098089 11.60153318 -0.07901875 10.01948841 -0.0625 8.4375 C-0.05798828 7.63119141 -0.05347656 6.82488281 -0.04882812 5.99414062 C-0.03700518 3.99606244 -0.01906914 1.99802217 0 0 Z " fill="#E8C7AE" transform="translate(62,44)"/>
<path d="M0 0 C2.7318625 1.20332039 3.1187061 2.57640402 4.21875 5.3046875 C4.55390625 6.10777344 4.8890625 6.91085938 5.234375 7.73828125 C5.96875 9.8671875 5.96875 9.8671875 5.96875 11.8671875 C2.99875 11.8671875 0.02875 11.8671875 -3.03125 11.8671875 C-4.35125 8.8971875 -5.67125 5.9271875 -7.03125 2.8671875 C-2.65273481 -0.17344805 -2.65273481 -0.17344805 0 0 Z " fill="#223548" transform="translate(42.03125,108.1328125)"/>
<path d="M0 0 C0.05389087 1.95803507 0.09274217 3.91648909 0.125 5.875 C0.14820313 6.96554688 0.17140625 8.05609375 0.1953125 9.1796875 C0 12 0 12 -2 14 C-4.125 13.625 -4.125 13.625 -6 13 C-6 11.68 -6 10.36 -6 9 C-6.99 8.67 -7.98 8.34 -9 8 C-9 6.02 -9 4.04 -9 2 C-2.25 0 -2.25 0 0 0 Z " fill="#AE7F63" transform="translate(54,50)"/>
<path d="M0 0 C0.66 0 1.32 0 2 0 C2.33 1.65 2.66 3.3 3 5 C6.3 4.67 9.6 4.34 13 4 C12.67 5.98 12.34 7.96 12 10 C11.67 9.34 11.34 8.68 11 8 C6.5428126 8.26218749 4.48477302 8.57711289 1.0625 11.5625 C0.381875 12.366875 -0.29875 13.17125 -1 14 C-1.99 13.67 -2.98 13.34 -4 13 C-4.125 10.625 -4.125 10.625 -4 8 C-3.34 7.34 -2.68 6.68 -2 6 C-1.28591666 4.01643517 -0.61382258 2.01684563 0 0 Z " fill="#B5835F" transform="translate(64,103)"/>
<path d="M0 0 C3.3125 0.0625 3.3125 0.0625 7 1 C9.02081728 4.52013333 10 6.93552213 10 11 C7.26094655 12.36952673 5.02912668 12.12621361 2 12 C1.34 11.67 0.68 11.34 0 11 C0 7.37 0 3.74 0 0 Z " fill="#DEBCA3" transform="translate(63,27)"/>
<path d="M0 0 C0.66 0 1.32 0 2 0 C5.31043367 3.77138013 8.0642722 7.26465066 7.875 12.375 C7.58625 13.24125 7.2975 14.1075 7 15 C7 18.38023517 7.87455622 20.83468937 9 24 C6.31670279 22.87518349 4.44487097 21.88078644 3.10253906 19.22314453 C2.34548856 17.0203022 1.71525375 14.81568019 1.125 12.5625 C0.78855469 11.4168457 0.78855469 11.4168457 0.4453125 10.24804688 C-0.63152788 6.38151688 -1.23221921 3.9111227 0 0 Z " fill="#73523E" transform="translate(79,19)"/>
<path d="M0 0 C2.0625 0.25 2.0625 0.25 4 1 C5.80319789 4.60639579 5.47193943 8.42778318 4.328125 12.23828125 C3.59815505 14.17683351 2.80383467 16.09089266 2 18 C1.01 17.67 0.02 17.34 -1 17 C-1.33 13.7 -1.66 10.4 -2 7 C-2.66 7 -3.32 7 -4 7 C-2.92598892 4.08482708 -2.22189824 2.22189824 0 0 Z " fill="#473229" transform="translate(98,66)"/>
<path d="M0 0 C2.4375 0.8125 2.4375 0.8125 5 2 C5.33 2.99 5.66 3.98 6 5 C5.01 5 4.02 5 3 5 C3 5.66 3 6.32 3 7 C1.68 7 0.36 7 -1 7 C-1 7.99 -1 8.98 -1 10 C-1.66 10 -2.32 10 -3 10 C-3 10.66 -3 11.32 -3 12 C-3.99 12.33 -4.98 12.66 -6 13 C-6.68939809 15.32671854 -7.35466922 17.66067594 -8 20 C-9.625 21.9375 -9.625 21.9375 -11 23 C-11.66 22.67 -12.32 22.34 -13 22 C-12.38125 21.154375 -11.7625 20.30875 -11.125 19.4375 C-9.50237968 17.03444983 -8.9032429 15.60552876 -8.1875 12.6875 C-6.54240948 7.57906102 -3.43754435 4.05336111 0 0 Z " fill="#34546A" transform="translate(84,97)"/>
<path d="M0 0 C0.33 0 0.66 0 1 0 C1.03738281 0.80824219 1.07476562 1.61648437 1.11328125 2.44921875 C1.17902344 3.51785156 1.24476562 4.58648437 1.3125 5.6875 C1.37050781 6.74324219 1.42851563 7.79898438 1.48828125 8.88671875 C2.05797095 12.35269346 2.71634711 14.32261385 5 17 C7.73377614 17.60393692 7.73377614 17.60393692 10.6875 17.3125 C12.17830078 17.24482422 12.17830078 17.24482422 13.69921875 17.17578125 C14.45847656 17.11777344 15.21773437 17.05976562 16 17 C15.67 15.68 15.34 14.36 15 13 C18.28976808 11.90341064 19.71303767 12.20046862 23 13 C22.0625 14.875 22.0625 14.875 20 17 C17.66574751 17.72761384 15.36916556 18.18851017 12.9609375 18.60546875 C11.00465786 18.81076086 11.00465786 18.81076086 10 20 C6.91014226 20 4.84796509 19.99507214 2 19 C-1.77724013 13.57021731 -1.58012369 7.44829794 -1 1 C-0.67 0.67 -0.34 0.34 0 0 Z " fill="#684735" transform="translate(74,78)"/>
<path d="M0 0 C1.65 0.33 3.3 0.66 5 1 C4.67 1.99 4.34 2.98 4 4 C2.02 4 0.04 4 -2 4 C-1.79375 5.010625 -1.5875 6.02125 -1.375 7.0625 C-0.49810115 13.70530912 -1.96556557 20.43433354 -3 27 C-3.99 26.67 -4.98 26.34 -6 26 C-6.66 26.99 -7.32 27.98 -8 29 C-8.33 25.7 -8.66 22.4 -9 19 C-8.34 19 -7.68 19 -7 19 C-6.34 19.99 -5.68 20.98 -5 22 C-4.67 15.73 -4.34 9.46 -4 3 C-2.68 2.34 -1.36 1.68 0 1 C0 0.67 0 0.34 0 0 Z " fill="#754E39" transform="translate(60,73)"/>
<path d="M0 0 C-1.57413417 4.09274885 -4.54102377 7.35956013 -8 10 C-8.99 10 -9.98 10 -11 10 C-11.33 8.68 -11.66 7.36 -12 6 C-14.1519437 9.22791555 -14.20086443 10.28400809 -14 14 C-14.66 14 -15.32 14 -16 14 C-16 11.03 -16 8.06 -16 5 C-14.08717875 4.15787744 -12.16957527 3.32661136 -10.25 2.5 C-9.18265625 2.0359375 -8.1153125 1.571875 -7.015625 1.09375 C-4 0 -4 0 0 0 Z " fill="#858D93" transform="translate(16,106)"/>
<path d="M0 0 C1.17084388 3.71288053 0.52742026 6.0941586 -0.49960327 9.83190918 C-1.31949038 13.38426997 -1.30529287 16.88409605 -1.30078125 20.515625 C-1.30506638 21.29387634 -1.3093515 22.07212769 -1.31376648 22.8739624 C-1.31946662 24.50418124 -1.32004223 26.13442549 -1.31567383 27.76464844 C-1.3124903 30.25759695 -1.33610623 32.74938319 -1.36132812 35.2421875 C-1.36359924 36.83333185 -1.36430549 38.42447936 -1.36328125 40.015625 C-1.37709587 41.12819672 -1.37709587 41.12819672 -1.39118958 42.26324463 C-1.35292274 46.53069294 -0.8788605 48.83139796 2 52 C2 52.66 2 53.32 2 54 C2.99 54.33 3.98 54.66 5 55 C3.515 55.495 3.515 55.495 2 56 C-2.15044182 52.67964655 -3.13154967 49.05784294 -4 44 C-4.12666021 41.24442184 -4.17185143 38.62279856 -4.08203125 35.87890625 C-4.06412033 35.13470932 -4.04620941 34.39051239 -4.02775574 33.62376404 C-3.98686094 32.06143957 -3.94034873 30.49925277 -3.88842773 28.93725586 C-3.81280994 26.57219392 -3.76371463 24.2075818 -3.71679688 21.84179688 C-3.51554702 14.11459636 -3.07058666 7.20884362 0 0 Z " fill="#6E655B" transform="translate(22,39)"/>
<path d="M0 0 C0 1.65 0 3.3 0 5 C0.7425 4.54625 1.485 4.0925 2.25 3.625 C4.44874794 2.32573985 6.71569364 1.14215318 9 0 C8.67 2.97 8.34 5.94 8 9 C4.37 9 0.74 9 -3 9 C-3.33 6.69 -3.66 4.38 -4 2 C-1 0 -1 0 0 0 Z " fill="#C3C5CA" transform="translate(5,111)"/>
<path d="M0 0 C0.99 0.33 1.98 0.66 3 1 C2.83757813 1.70125 2.67515625 2.4025 2.5078125 3.125 C1.97473732 6.14302565 1.86718656 8.93713337 1.875 12 C1.87242188 13.010625 1.86984375 14.02125 1.8671875 15.0625 C1.99173273 17.81714744 2.37889135 20.31838803 3 23 C2.01 23.66 1.02 24.32 0 25 C0 23.68 0 22.36 0 21 C-0.61875 20.7525 -1.2375 20.505 -1.875 20.25 C-4.35068687 18.79371361 -4.95125002 17.62187494 -6 15 C-4.02 15.99 -4.02 15.99 -2 17 C-1.93941406 15.94039062 -1.87882812 14.88078125 -1.81640625 13.7890625 C-1.73199873 12.40102779 -1.64735083 11.01300768 -1.5625 9.625 C-1.52318359 8.92632812 -1.48386719 8.22765625 -1.44335938 7.5078125 C-1.11328125 2.2265625 -1.11328125 2.2265625 0 0 Z " fill="#B78D6D" transform="translate(60,86)"/>
<path d="M0 0 C0.33 0 0.66 0 1 0 C1.13277344 0.98742187 1.26554687 1.97484375 1.40234375 2.9921875 C1.57894531 4.27351563 1.75554687 5.55484375 1.9375 6.875 C2.11152344 8.15117188 2.28554687 9.42734375 2.46484375 10.7421875 C2.81433227 13.87559454 2.81433227 13.87559454 4 16 C6.3140622 16.73075648 8.64828869 17.40138258 11 18 C9.75023244 21.65316671 9.32901247 22.78065836 6 25 C6 24.01 6 23.02 6 22 C5.34 22 4.68 22 4 22 C3.67 20.68 3.34 19.36 3 18 C2.34 18 1.68 18 1 18 C-1.23722343 12.68659435 -1.43924559 7.67954768 -1 2 C-0.67 1.34 -0.34 0.68 0 0 Z " fill="#9C7355" transform="translate(72,80)"/>
<path d="M0 0 C0.70125 -0.02578125 1.4025 -0.0515625 2.125 -0.078125 C2.74375 0.03015625 3.3625 0.1384375 4 0.25 C4.66 1.24 5.32 2.23 6 3.25 C3.69 3.25 1.38 3.25 -1 3.25 C-1.6496875 4.61125 -1.6496875 4.61125 -2.3125 6 C-3.70517271 8.68218449 -5.11112757 10.91139605 -7 13.25 C-4.525 14.24 -4.525 14.24 -2 15.25 C-2 15.91 -2 16.57 -2 17.25 C-7.875 15.375 -7.875 15.375 -9 14.25 C-8.94921875 12.32421875 -8.94921875 12.32421875 -8.6875 9.9375 C-8.60886719 9.15761719 -8.53023437 8.37773438 -8.44921875 7.57421875 C-7.977499 5.13358177 -7.29454886 3.36707811 -6 1.25 C-3.78704384 0.14352192 -2.45327301 0.05411632 0 0 Z " fill="#CFA587" transform="translate(63,24.75)"/>
<path d="M0 0 C2 2 2 2 2 5 C1.34 5 0.68 5 0 5 C-0.144375 5.78375 -0.28875 6.5675 -0.4375 7.375 C-1 10 -1 10 -2 12 C-3.98 12 -5.96 12 -8 12 C-8 11.01 -8 10.02 -8 9 C-8.66 9 -9.32 9 -10 9 C-10 8.34 -10 7.68 -10 7 C-9.0925 6.5875 -8.185 6.175 -7.25 5.75 C-4.20334382 4.10949282 -2.28873194 2.55281639 0 0 Z " fill="#DEB79B" transform="translate(72,71)"/>
<path d="M0 0 C0.33 0 0.66 0 1 0 C1.54470737 7.9587799 0.48901845 13.81947541 -3 21 C-5.0245738 19.06745228 -6.42105792 17.36841312 -8 15 C-7.625 12.8125 -7.625 12.8125 -7 11 C-6.38125 10.896875 -5.7625 10.79375 -5.125 10.6875 C-2.63473516 10.12474627 -2.63473516 10.12474627 -1 7 C-0.60612212 4.67612053 -0.26513915 2.34206251 0 0 Z " fill="#36241F" transform="translate(45,84)"/>
<path d="M0 0 C0.33 0 0.66 0 1 0 C1.19335938 0.67546875 1.38671875 1.3509375 1.5859375 2.046875 C1.84632812 2.93890625 2.10671875 3.8309375 2.375 4.75 C2.63023438 5.63171875 2.88546875 6.5134375 3.1484375 7.421875 C3.9085457 9.96657353 3.9085457 9.96657353 5.0859375 12.04296875 C6.16518416 14.35366351 6.26719036 16.02262382 6.25 18.5625 C6.25515625 19.32691406 6.2603125 20.09132813 6.265625 20.87890625 C6 23 6 23 4 26 C3.34 26 2.68 26 2 26 C2.02320312 25.16855469 2.04640625 24.33710937 2.0703125 23.48046875 C2.08835937 22.39378906 2.10640625 21.30710937 2.125 20.1875 C2.14820312 19.10855469 2.17140625 18.02960938 2.1953125 16.91796875 C2.23023717 13.80597132 2.23023717 13.80597132 0 11 C-0.1953125 8.30078125 -0.1953125 8.30078125 -0.125 5.3125 C-0.10695313 4.31863281 -0.08890625 3.32476562 -0.0703125 2.30078125 C-0.04710938 1.54152344 -0.02390625 0.78226563 0 0 Z " fill="#6D5848" transform="translate(101,56)"/>
<path d="M0 0 C0.79921875 0.11085937 1.5984375 0.22171875 2.421875 0.3359375 C3.32679687 0.47902344 3.32679687 0.47902344 4.25 0.625 C4.25 1.615 4.25 2.605 4.25 3.625 C1.61 3.955 -1.03 4.285 -3.75 4.625 C-3.42 5.285 -3.09 5.945 -2.75 6.625 C-1.43 6.625 -0.11 6.625 1.25 6.625 C1.25 7.285 1.25 7.945 1.25 8.625 C-2.125 9.25 -2.125 9.25 -5.75 9.625 C-8.3154594 7.0595406 -8.29046087 5.14813332 -8.75 1.625 C-5.5750906 -0.2828584 -3.64414789 -0.5359041 0 0 Z " fill="#966A55" transform="translate(73.75,39.375)"/>
<path d="M0 0 C1.9375 0.6875 1.9375 0.6875 4 2 C4.75 4.625 4.75 4.625 5 7 C4.67 6.34 4.34 5.68 4 5 C1.03595495 7.80804268 -1.44499019 10.18315774 -3 14 C-3.3403125 13.0409375 -3.3403125 13.0409375 -3.6875 12.0625 C-4.85250896 9.72806339 -4.85250896 9.72806339 -7.625 9.25 C-8.40875 9.1675 -9.1925 9.085 -10 9 C-9.8125 7.125 -9.8125 7.125 -9 5 C-6.4375 3.75 -6.4375 3.75 -4 3 C-3.67 4.32 -3.34 5.64 -3 7 C-0.64046906 4.64046906 -0.50858587 3.22104383 0 0 Z " fill="#35211E" transform="translate(96,61)"/>
<path d="M0 0 C0.33 0 0.66 0 1 0 C1.06058594 0.83144531 1.12117188 1.66289063 1.18359375 2.51953125 C1.26738281 3.60621094 1.35117187 4.69289063 1.4375 5.8125 C1.51871094 6.89144531 1.59992187 7.97039063 1.68359375 9.08203125 C1.90212461 12.05989905 1.90212461 12.05989905 3 15 C2.67 15.66 2.34 16.32 2 17 C1.91691362 18.37548156 1.89263984 19.75485796 1.90234375 21.1328125 C1.90556641 21.93847656 1.90878906 22.74414062 1.91210938 23.57421875 C1.92048828 24.41597656 1.92886719 25.25773437 1.9375 26.125 C1.94426758 27.39923828 1.94426758 27.39923828 1.95117188 28.69921875 C1.96297126 30.79950909 1.98090694 32.8997633 2 35 C2.66 35.33 3.32 35.66 4 36 C4.72693904 37.97888961 5.39816251 39.97954558 6 42 C5.34 42 4.68 42 4 42 C-0.06226079 37.22103629 -0.5581789 33.67864598 -0.390625 27.5390625 C-0.38496521 26.74849457 -0.37930542 25.95792664 -0.37347412 25.1434021 C-0.35121487 22.63663273 -0.30104153 20.13133187 -0.25 17.625 C-0.22992133 15.9179895 -0.21167296 14.21095643 -0.1953125 12.50390625 C-0.15138484 8.33537804 -0.08243296 4.16793736 0 0 Z " fill="#3A2C26" transform="translate(20,51)"/>
<path d="M0 0 C1.485 0.99 1.485 0.99 3 2 C5.57648542 2.3674728 8.12536129 2.50369229 10.72265625 2.65625 C13 3 13 3 15 5 C15.23046875 7.12890625 15.23046875 7.12890625 15.1875 9.5625 C15.17783203 10.77099609 15.17783203 10.77099609 15.16796875 12.00390625 C15 14 15 14 14 15 C12.14227838 14.91015699 10.28752015 14.75388139 8.4375 14.5625 C7.42558594 14.46066406 6.41367188 14.35882813 5.37109375 14.25390625 C4.58863281 14.17011719 3.80617188 14.08632813 3 14 C3 13.34 3 12.68 3 12 C6.153368 11.29925156 8.72724974 11 12 11 C12 9.02 12 7.04 12 5 C11.30132812 4.97421875 10.60265625 4.9484375 9.8828125 4.921875 C8.97273438 4.86515625 8.06265625 4.8084375 7.125 4.75 C5.76761719 4.68039063 5.76761719 4.68039063 4.3828125 4.609375 C2 4 2 4 0.6796875 1.953125 C0.45539063 1.30859375 0.23109375 0.6640625 0 0 Z " fill="#DCAF94" transform="translate(66,47)"/>
<path d="M0 0 C4.5937773 1.35994784 6.22498397 3.19929948 8.6875 7.25 C9.55955078 8.64992188 9.55955078 8.64992188 10.44921875 10.078125 C11.99975793 12.99954391 13.05032174 15.83752461 14 19 C7.34281542 14.10900725 3.74403896 8.31737706 0 1 C0 0.67 0 0.34 0 0 Z " fill="#5D3C2C" transform="translate(84,41)"/>
<path d="M0 0 C1.828125 0.19140625 1.828125 0.19140625 4 1 C5.484375 3.21484375 5.484375 3.21484375 6.75 5.9375 C7.17796875 6.83339844 7.6059375 7.72929688 8.046875 8.65234375 C9 11 9 11 9 13 C7.35 13 5.7 13 4 13 C1.04952165 8.38987758 -0.5497272 5.63470383 0 0 Z " fill="#AAAFB8" transform="translate(30,107)"/>
<path d="M0 0 C1.27351308 2.54702616 0.80191925 3.4282945 0.0625 6.125 C-0.13214844 6.84945312 -0.32679687 7.57390625 -0.52734375 8.3203125 C-0.76130859 9.15175781 -0.76130859 9.15175781 -1 10 C-0.01 10.33 0.98 10.66 2 11 C2 11.66 2 12.32 2 13 C-0.64 13 -3.28 13 -6 13 C-5.80743982 4.80743982 -5.80743982 4.80743982 -2.4375 1.4375 C-1.2309375 0.7259375 -1.2309375 0.7259375 0 0 Z " fill="#C8C9CD" transform="translate(105,107)"/>
<path d="M0 0 C3 1.6875 3 1.6875 6 4 C6.375 6.75 6.375 6.75 6 9 C5.01 9.33 4.02 9.66 3 10 C3 10.99 3 11.98 3 13 C2.01 13 1.02 13 0 13 C-1.29676812 8.38926889 -0.71109139 4.66159911 0 0 Z " fill="#D2A988" transform="translate(54,103)"/>
<path d="M0 0 C1.32 0.33 2.64 0.66 4 1 C4 3.64 4 6.28 4 9 C1.36 9 -1.28 9 -4 9 C-2.94124926 5.59687262 -1.99097846 2.98646769 0 0 Z " fill="#DCDDE2" transform="translate(116,111)"/>
<path d="M0 0 C2.27993598 2.12269902 3.98892666 3.98095386 5.5625 6.6875 C6.84772096 9.30410442 6.84772096 9.30410442 10 10 C9.67 11.65 9.34 13.3 9 15 C4.2993763 13.51559252 4.2993763 13.51559252 2.875 11.0625 C2.58625 10.381875 2.2975 9.70125 2 9 C1.443125 8.54625 0.88625 8.0925 0.3125 7.625 C-1 6 -1 6 -0.6875 2.8125 C-0.460625 1.884375 -0.23375 0.95625 0 0 Z " fill="#5A3F30" transform="translate(85,29)"/>
<path d="M0 0 C3.96 0 7.92 0 12 0 C12.66 1.32 13.32 2.64 14 4 C11.525 5.485 11.525 5.485 9 7 C9 6.34 9 5.68 9 5 C8.34 5 7.68 5 7 5 C6.67 5.66 6.34 6.32 6 7 C5.67 6.01 5.34 5.02 5 4 C2.03 3.505 2.03 3.505 -1 3 C-0.67 2.01 -0.34 1.02 0 0 Z " fill="#5D4138" transform="translate(45,41)"/>
<path d="M0 0 C0.33 0 0.66 0 1 0 C1.33 4.29 1.66 8.58 2 13 C2.66 13 3.32 13 4 13 C4.66 14.32 5.32 15.64 6 17 C1.69230769 20.07692308 1.69230769 20.07692308 -1.8125 19.6875 C-2.534375 19.460625 -3.25625 19.23375 -4 19 C-1 17 -1 17 1 17 C0.67 16.01 0.34 15.02 0 14 C-0.06970052 11.60509014 -0.08448003 9.20832309 -0.0625 6.8125 C-0.05347656 5.54019531 -0.04445313 4.26789063 -0.03515625 2.95703125 C-0.02355469 1.98121094 -0.01195313 1.00539063 0 0 Z " fill="#3E2620" transform="translate(82,76)"/>
<path d="M0 0 C4.51677347 0.36437836 6.46986265 0.68098234 9.88671875 3.875 C15.13473679 12.05573401 15.13473679 12.05573401 14.69921875 16.0625 C14.47234375 16.76375 14.24546875 17.465 14.01171875 18.1875 C12.03171875 18.5175 10.05171875 18.8475 8.01171875 19.1875 C9.33171875 17.8675 10.65171875 16.5475 12.01171875 15.1875 C9.88877518 8.49792253 9.88877518 8.49792253 5.69921875 3.0625 C2.36359439 1.97648277 -0.50356136 1.98251648 -3.98828125 2.1875 C-1.98828125 0.1875 -1.98828125 0.1875 0 0 Z " fill="#754E3A" transform="translate(61.98828125,21.8125)"/>
<path d="M0 0 C-0.94875 0.268125 -1.8975 0.53625 -2.875 0.8125 C-6.1865364 2.65990544 -6.1865364 2.65990544 -6.84375 5.6484375 C-7.33008189 8.43054198 -7.72326275 11.18968548 -8 14 C-8.99 14 -9.98 14 -11 14 C-11.16262976 4.24221453 -11.16262976 4.24221453 -10 2 C-6.45371784 -0.28538184 -4.05371308 -1.71503246 0 0 Z " fill="#704735" transform="translate(58,25)"/>
<path d="M0 0 C-0.33 0.99 -0.66 1.98 -1 3 C-1.66 3 -2.32 3 -3 3 C-4.37310707 4.29233607 -5.71034824 5.62437146 -7 7 C-7.99 6.67 -8.98 6.34 -10 6 C-9.67 5.34 -9.34 4.68 -9 4 C-10.65 3.67 -12.3 3.34 -14 3 C-9.5718927 0.52025991 -4.9510693 -1.65035643 0 0 Z " fill="#CF9786" transform="translate(74,70)"/>
<path d="M0 0 C0.66 0 1.32 0 2 0 C2.66 2.64 3.32 5.28 4 8 C5.32 8.33 6.64 8.66 8 9 C7.34 10.32 6.68 11.64 6 13 C4.68 12.67 3.36 12.34 2 12 C2 10.68 2 9.36 2 8 C1.01 7.67 0.02 7.34 -1 7 C-1.04254356 5.00045254 -1.04080783 2.99958364 -1 1 C-0.67 0.67 -0.34 0.34 0 0 Z " fill="#A46F55" transform="translate(46,51)"/>
<path d="M0 0 C0.99 0 1.98 0 3 0 C2.34 5.28 1.68 10.56 1 16 C-1 15 -1 15 -1.625 13.4375 C-2.38130949 8.52148832 -2.85488368 4.28232553 0 0 Z " fill="#624030" transform="translate(85,72)"/>
<path d="M0 0 C0.66 0.33 1.32 0.66 2 1 C3.04976964 4.14930893 3.10131595 6.38814456 3.0625 9.6875 C3.05347656 10.68136719 3.04445313 11.67523438 3.03515625 12.69921875 C3.02355469 13.45847656 3.01195313 14.21773437 3 15 C1.35 14.67 -0.3 14.34 -2 14 C-2.33 11.03 -2.66 8.06 -3 5 C-2.01 5.99 -1.02 6.98 0 8 C0 5.36 0 2.72 0 0 Z " fill="#331F1C" transform="translate(78,26)"/>
<path d="M0 0 C0.66 0 1.32 0 2 0 C2 0.99 2 1.98 2 3 C2.66 3.33 3.32 3.66 4 4 C1.25 8.875 1.25 8.875 -1 10 C-1.66 9.67 -2.32 9.34 -3 9 C-3.25532751 5.93606987 -3.21861333 4.36766788 -1.625 1.6875 C-0.820625 0.8521875 -0.820625 0.8521875 0 0 Z " fill="#986240" transform="translate(63,107)"/>
<path d="M0 0 C1.65 0 3.3 0 5 0 C4.814375 0.7425 4.62875 1.485 4.4375 2.25 C4.00796892 4.94990963 4.14877026 6.44631077 5 9 C3.68 9 2.36 9 1 9 C-1.09230769 4.56923077 -1.09230769 4.56923077 -0.625 1.6875 C-0.41875 1.130625 -0.2125 0.57375 0 0 Z " fill="#A67757" transform="translate(47,111)"/>
<path d="M0 0 C0.66 1.32 1.32 2.64 2 4 C3.32 4 4.64 4 6 4 C6 3.34 6 2.68 6 2 C7.65 2 9.3 2 11 2 C10.01 2.33 9.02 2.66 8 3 C8 3.66 8 4.32 8 5 C5.69 5 3.38 5 1 5 C0.896875 5.639375 0.79375 6.27875 0.6875 6.9375 C0.460625 7.618125 0.23375 8.29875 0 9 C-0.99 9.33 -1.98 9.66 -3 10 C-2.69201674 8.51988629 -2.378482 7.04092675 -2.0625 5.5625 C-1.88847656 4.73878906 -1.71445312 3.91507813 -1.53515625 3.06640625 C-1 1 -1 1 0 0 Z " fill="#432A23" transform="translate(40,45)"/>
<path d="M0 0 C3.65316671 1.24976756 4.78065836 1.67098753 7 5 C7 5.99 7 6.98 7 8 C6.01 8.495 6.01 8.495 5 9 C5.33 9.66 5.66 10.32 6 11 C5.34 11.66 4.68 12.32 4 13 C3.01 10.69 2.02 8.38 1 6 C1.66 5.67 2.32 5.34 3 5 C1.68 4.01 0.36 3.02 -1 2 C-0.67 1.34 -0.34 0.68 0 0 Z " fill="#49342C" transform="translate(71,8)"/>
<path d="M0 0 C1.98 0 3.96 0 6 0 C5.01 0.495 5.01 0.495 4 1 C4 1.66 4 2.32 4 3 C4.66 3 5.32 3 6 3 C6 3.99 6 4.98 6 6 C7.98 6 9.96 6 12 6 C12.33 5.01 12.66 4.02 13 3 C13.33 3.66 13.66 4.32 14 5 C13 7 13 7 10.875 7.875 C6.51500723 8.0645649 4.54704736 6.52386062 1 4 C0.0625 1.75 0.0625 1.75 0 0 Z " fill="#BB8E71" transform="translate(58,77)"/>
<path d="M0 0 C0.99 0 1.98 0 3 0 C2.25 6.625 2.25 6.625 0 10 C-1.32 9.67 -2.64 9.34 -4 9 C-4 7.35 -4 5.7 -4 4 C-3.01 4 -2.02 4 -1 4 C-0.67 2.68 -0.34 1.36 0 0 Z " fill="#2D2629" transform="translate(54,13)"/>
<path d="M0 0 C2.31 1.98 4.62 3.96 7 6 C7 4.02 7 2.04 7 0 C8.96301592 3.50538557 9.95902388 7.13351728 11 11 C10.5875 10.484375 10.175 9.96875 9.75 9.4375 C9.1725 8.963125 8.595 8.48875 8 8 C5.83700789 8.22757731 5.83700789 8.22757731 4 9 C0 2.25 0 2.25 0 0 Z " fill="#695241" transform="translate(87,30)"/>
<path d="M0 0 C0.66 0.33 1.32 0.66 2 1 C1.34 1.66 0.68 2.32 0 3 C-2.32875162 7.80085364 -2.32875162 7.80085364 -3 13 C-0.525 13.99 -0.525 13.99 2 15 C2 15.66 2 16.32 2 17 C-3.875 15.125 -3.875 15.125 -5 14 C-4.94921875 12.07421875 -4.94921875 12.07421875 -4.6875 9.6875 C-4.60886719 8.90761719 -4.53023437 8.12773438 -4.44921875 7.32421875 C-3.977499 4.88358177 -3.29454886 3.11707811 -2 1 C-1.34 0.67 -0.68 0.34 0 0 Z " fill="#C79B7B" transform="translate(59,25)"/>
<path d="M0 0 C0 1.65 0 3.3 0 5 C1.65 4.34 3.3 3.68 5 3 C3.99328314 6.02015057 3.451644 7.09316578 1 9 C-0.32 9 -1.64 9 -3 9 C-3.33 6.69 -3.66 4.38 -4 2 C-1 0 -1 0 0 0 Z " fill="#A6AEB6" transform="translate(5,111)"/>
<path d="M0 0 C1.35862973 3.90480249 0.89469712 7.7101776 0.5625 11.75 C0.51029297 12.44738281 0.45808594 13.14476563 0.40429688 13.86328125 C0.27525928 15.57596203 0.13840386 17.28805066 0 19 C-1.32 19 -2.64 19 -4 19 C-4.66 17.68 -5.32 16.36 -6 15 C-4.02 15.99 -4.02 15.99 -2 17 C-1.93941406 15.94039062 -1.87882812 14.88078125 -1.81640625 13.7890625 C-1.73199873 12.40102779 -1.64735083 11.01300768 -1.5625 9.625 C-1.52318359 8.92632812 -1.48386719 8.22765625 -1.44335938 7.5078125 C-1.11328125 2.2265625 -1.11328125 2.2265625 0 0 Z " fill="#AC8363" transform="translate(60,86)"/>
<path d="M0 0 C0 0.66 0 1.32 0 2 C-0.99 2 -1.98 2 -3 2 C-3 3.65 -3 5.3 -3 7 C0.3 6.67 3.6 6.34 7 6 C7 6.66 7 7.32 7 8 C1.51053913 9.12029814 -1.83430559 8.79217969 -7 7 C-7 6.34 -7 5.68 -7 5 C-6.01 5 -5.02 5 -4 5 C-4 3.68 -4 2.36 -4 1 C-2 0 -2 0 0 0 Z " fill="#C08A73" transform="translate(67,61)"/>
<path d="M0 0 C0.66 0 1.32 0 2 0 C2 0.66 2 1.32 2 2 C2.66 2 3.32 2 4 2 C4.08159574 6.16138263 3.98248524 9.9472484 3 14 C2.67 14 2.34 14 2 14 C2 10.7 2 7.4 2 4 C0.35 4.33 -1.3 4.66 -3 5 C-2.67 4.01 -2.34 3.02 -2 2 C-1.34 2 -0.68 2 0 2 C0 1.34 0 0.68 0 0 Z " fill="#926953" transform="translate(52,46)"/>
<path d="M0 0 C1.43088528 2.86177057 0.59991697 4.93375773 0 8 C0.66 8.33 1.32 8.66 2 9 C1.67 11.64 1.34 14.28 1 17 C-2.09413645 13.90586355 -2.15665224 11.12662602 -2.1875 6.9375 C-2.20167969 6.05964844 -2.21585937 5.18179688 -2.23046875 4.27734375 C-2 2 -2 2 0 0 Z " fill="#181216" transform="translate(78,76)"/>
<path d="M0 0 C0.33 0 0.66 0 1 0 C1 1.65 1 3.3 1 5 C0.01 5 -0.98 5 -2 5 C-2 5.66 -2 6.32 -2 7 C0.31 7.33 2.62 7.66 5 8 C5 8.66 5 9.32 5 10 C2.36 10.66 -0.28 11.32 -3 12 C-3.33 9.69 -3.66 7.38 -4 5 C-2.68 4.67 -1.36 4.34 0 4 C0 2.68 0 1.36 0 0 Z " fill="#9F5D50" transform="translate(62,61)"/>
<path d="M0 0 C0.19622241 4.21878192 -0.19769832 7.17010894 -2 11 C-2.99 10.67 -3.98 10.34 -5 10 C-4.34 7.69 -3.68 5.38 -3 3 C-3.99 2.67 -4.98 2.34 -6 2 C-3 0 -3 0 0 0 Z " fill="#4E3229" transform="translate(91,69)"/>
<path d="M0 0 C1 3 1 3 -0.43359375 6.35546875 C-1.09148807 7.6380304 -1.75989743 8.91524057 -2.4375 10.1875 C-2.77587891 10.84169922 -3.11425781 11.49589844 -3.46289062 12.16992188 C-4.29969098 13.78459299 -5.14869746 15.39292763 -6 17 C-6.66 16.34 -7.32 15.68 -8 15 C-6.85657478 12.68628057 -5.71038936 10.37400323 -4.5625 8.0625 C-4.23701172 7.40314453 -3.91152344 6.74378906 -3.57617188 6.06445312 C-1.11328125 1.11328125 -1.11328125 1.11328125 0 0 Z " fill="#2C1F1E" transform="translate(37,35)"/>
<path d="M0 0 C0.125 7.75 0.125 7.75 -1 10 C-0.72057545 11.67654729 -0.39171753 13.34608154 0 15 C-0.99 14.67 -1.98 14.34 -3 14 C-3.33 10.04 -3.66 6.08 -4 2 C-1 0 -1 0 0 0 Z " fill="#51382D" transform="translate(100,69)"/>
<path d="M0 0 C2.64 0 5.28 0 8 0 C8 0.66 8 1.32 8 2 C8.99 2.33 9.98 2.66 11 3 C9.68 3 8.36 3 7 3 C7 3.66 7 4.32 7 5 C4.03824877 4.38722388 2.61941217 3.74627478 0 2 C0 1.34 0 0.68 0 0 Z " fill="#4A2525" transform="translate(51,68)"/>
<path d="M0 0 C1.5 1.375 1.5 1.375 3 3 C3 3.66 3 4.32 3 5 C1.824375 4.690625 1.824375 4.690625 0.625 4.375 C-0.674375 4.189375 -0.674375 4.189375 -2 4 C-2.66 4.66 -3.32 5.32 -4 6 C-6.125 5.625 -6.125 5.625 -8 5 C-8 4.01 -8 3.02 -8 2 C-5.36 2 -2.72 2 0 2 C0 1.34 0 0.68 0 0 Z " fill="#4C342D" transform="translate(78,41)"/>
<path d="M0 0 C0.33 0 0.66 0 1 0 C1.33 1.98 1.66 3.96 2 6 C2.99 6 3.98 6 5 6 C4.67 7.32 4.34 8.64 4 10 C2.35 10 0.7 10 -1 10 C-1.02689216 8.52093108 -1.04634621 7.04172517 -1.0625 5.5625 C-1.07410156 4.73878906 -1.08570312 3.91507812 -1.09765625 3.06640625 C-1 1 -1 1 0 0 Z " fill="#BEC2C8" transform="translate(19,110)"/>
<path d="M0 0 C0 3.25873805 -0.5812142 4.16242839 -2 7 C-2.309375 8.175625 -2.61875 9.35125 -2.9375 10.5625 C-3.92005977 13.74136983 -4.43783652 15.0201464 -7 17 C-7.66 16.67 -8.32 16.34 -9 16 C-8.071875 14.7315625 -8.071875 14.7315625 -7.125 13.4375 C-4.90439838 10.14945128 -4.07821889 6.80970676 -3 3 C-1.375 1.0625 -1.375 1.0625 0 0 Z " fill="#534D4F" transform="translate(80,103)"/>
<path d="M0 0 C0.66 0 1.32 0 2 0 C2.12375 0.61875 2.2475 1.2375 2.375 1.875 C2.87197356 4.19120832 2.87197356 4.19120832 5 6 C4.67 6.99 4.34 7.98 4 9 C4 10.32 4 11.64 4 13 C3.34 13 2.68 13 2 13 C1.66127487 11.58461283 1.32925376 10.16762037 1 8.75 C0.814375 7.96109375 0.62875 7.1721875 0.4375 6.359375 C0 4 0 4 0 0 Z " fill="#86573F" transform="translate(46,59)"/>
<path d="M0 0 C0.66 0 1.32 0 2 0 C3.125 5.75 3.125 5.75 2 8 C1.9310528 9.37342831 1.91532292 10.75002102 1.9375 12.125 C1.958125 13.40375 1.97875 14.6825 2 16 C-0.42130331 12.36804504 -0.21022785 10.61650652 -0.125 6.3125 C-0.09792969 4.54326172 -0.09792969 4.54326172 -0.0703125 2.73828125 C-0.04710937 1.83464844 -0.02390625 0.93101563 0 0 Z " fill="#412721" transform="translate(40,55)"/>
<path d="M0 0 C0.66 0 1.32 0 2 0 C2.33 2.97 2.66 5.94 3 9 C1.35 9 -0.3 9 -2 9 C-1.51421457 5.87709365 -1.0013988 3.00419641 0 0 Z " fill="#939AA2" transform="translate(15,111)"/>
<path d="M0 0 C0.80050781 0.12761719 1.60101563 0.25523438 2.42578125 0.38671875 C3.23402344 0.50660156 4.04226562 0.62648437 4.875 0.75 C5.48988281 0.85699219 6.10476562 0.96398438 6.73828125 1.07421875 C6.73828125 2.06421875 6.73828125 3.05421875 6.73828125 4.07421875 C2.57689862 4.15581449 -1.20896715 4.05670399 -5.26171875 3.07421875 C-3.53640014 0.90221572 -2.83921072 0.09316926 0 0 Z " fill="#815F4B" transform="translate(71.26171875,38.92578125)"/>
<path d="M0 0 C0.66 0.33 1.32 0.66 2 1 C1.67 2.03125 1.34 3.0625 1 4.125 C0.0284808 7.48426709 -0.17116771 10.49106202 0 14 C-0.99 13.67 -1.98 13.34 -3 13 C-3.17791204 8.46324303 -3.0461125 5.092225 -1 1 C-0.67 0.67 -0.34 0.34 0 0 Z " fill="#A07053" transform="translate(53,26)"/>
<path d="M0 0 C-0.99 1.485 -0.99 1.485 -2 3 C-4.31 2.67 -6.62 2.34 -9 2 C-8.67 1.01 -8.34 0.02 -8 -1 C-4.37673261 -2.2077558 -3.35853631 -1.54311128 0 0 Z " fill="#534139" transform="translate(77,5)"/>
<path d="M0 0 C0.99 0 1.98 0 3 0 C3.36923077 6.4 3.36923077 6.4 1.5 9.4375 C1.005 9.953125 0.51 10.46875 0 11 C0 8.36 0 5.72 0 3 C-0.66 2.67 -1.32 2.34 -2 2 C-1.34 1.34 -0.68 0.68 0 0 Z " fill="#503026" transform="translate(57,45)"/>
<path d="M0 0 C-0.33 0.66 -0.66 1.32 -1 2 C-3.0625 2.625 -3.0625 2.625 -5 3 C-5.33 4.32 -5.66 5.64 -6 7 C-6.66 7 -7.32 7 -8 7 C-8.12375 6.360625 -8.2475 5.72125 -8.375 5.0625 C-8.684375 4.0415625 -8.684375 4.0415625 -9 3 C-9.66 2.67 -10.32 2.34 -11 2 C-7.36576791 -0.32590854 -4.22911669 -0.16265833 0 0 Z " fill="#626972" transform="translate(31,102)"/>
<path d="M0 0 C0.99 0.33 1.98 0.66 3 1 C4.1875 4.0625 4.1875 4.0625 5 7 C3.35 7 1.7 7 0 7 C-1.125 2.25 -1.125 2.25 0 0 Z " fill="#B0B6BE" transform="translate(34,113)"/>
<path d="M0 0 C0.33 0 0.66 0 1 0 C1.38289206 9.76374745 1.38289206 9.76374745 -1 14 C-1.99 14.495 -1.99 14.495 -3 15 C-2.44854729 9.76119922 -1.57077907 5.02649303 0 0 Z " fill="#614C3F" transform="translate(103,70)"/>
<path d="M0 0 C0.33 0 0.66 0 1 0 C3.14285714 7.42857143 3.14285714 7.42857143 4 11 C0.125 9.25 0.125 9.25 -1 7 C-1.125 3.9375 -1.125 3.9375 -1 1 C-0.67 0.67 -0.34 0.34 0 0 Z " fill="#39241E" transform="translate(87,78)"/>
<path d="M0 0 C0.928125 0.0825 1.85625 0.165 2.8125 0.25 C2.8125 1.24 2.8125 2.23 2.8125 3.25 C1.1625 3.25 -0.4875 3.25 -2.1875 3.25 C-2.1875 3.91 -2.1875 4.57 -2.1875 5.25 C-3.5075 4.92 -4.8275 4.59 -6.1875 4.25 C-4.36434338 1.00883268 -3.82500054 0.30000004 0 0 Z " fill="#271A1C" transform="translate(48.1875,43.75)"/>
<path d="M0 0 C0.33 0 0.66 0 1 0 C1.05422947 1.4370809 1.09289723 2.87475462 1.125 4.3125 C1.14820312 5.11300781 1.17140625 5.91351563 1.1953125 6.73828125 C1 9 1 9 -1 12 C-1.66 12 -2.32 12 -3 12 C-2.49202991 7.6822542 -1.80317221 3.96697886 0 0 Z " fill="#8E8477" transform="translate(106,70)"/>
<path d="M0 0 C3.63 0 7.26 0 11 0 C11 0.66 11 1.32 11 2 C6.67265609 4.22923777 3.71599818 3.92470553 -1 3 C-0.67 2.01 -0.34 1.02 0 0 Z " fill="#53372C" transform="translate(45,41)"/>
<path d="M0 0 C1 2 1 2 0.875 4.9375 C0.69720066 8.000962 0.69720066 8.000962 2.5 9.875 C2.995 10.24625 3.49 10.6175 4 11 C2.35 11 0.7 11 -1 11 C-2.1875 8.3125 -2.1875 8.3125 -3 5 C-1.625 2.125 -1.625 2.125 0 0 Z " fill="#B58563" transform="translate(53,109)"/>
<path d="M0 0 C0 2.64 0 5.28 0 8 C-0.99 7.67 -1.98 7.34 -3 7 C-3.33 5.02 -3.66 3.04 -4 1 C-2 0 -2 0 0 0 Z " fill="#BB886C" transform="translate(52,52)"/>
<path d="M0 0 C1.23593891 3.70781672 0.5678132 4.67510253 -0.9375 8.1875 C-1.31777344 9.08855469 -1.69804688 9.98960938 -2.08984375 10.91796875 C-2.54037109 11.94857422 -2.54037109 11.94857422 -3 13 C-3.66 12.01 -4.32 11.02 -5 10 C-3.6823614 6.31061191 -2.17294197 3.25941295 0 0 Z " fill="#291E20" transform="translate(49,20)"/>
<path d="M0 0 C2.31 0 4.62 0 7 0 C5.25 4.875 5.25 4.875 3 6 C3 5.01 3 4.02 3 3 C2.34 3 1.68 3 1 3 C0.67 2.01 0.34 1.02 0 0 Z " fill="#AF8666" transform="translate(75,99)"/>
<path d="M0 0 C1.65 0.33 3.3 0.66 5 1 C4.67 1.99 4.34 2.98 4 4 C2.02 4 0.04 4 -2 4 C-2.33 4.99 -2.66 5.98 -3 7 C-3.33 5.68 -3.66 4.36 -4 3 C-2.68 2.34 -1.36 1.68 0 1 C0 0.67 0 0.34 0 0 Z " fill="#96604B" transform="translate(60,73)"/>
<path d="M0 0 C2.125 0.375 2.125 0.375 4 1 C3.67 2.32 3.34 3.64 3 5 C3 4.34 3 3.68 3 3 C-0.12197478 4.3089572 -0.12197478 4.3089572 -2 7 C-2.66 7 -3.32 7 -4 7 C-2.92598892 4.08482708 -2.22189824 2.22189824 0 0 Z " fill="#3F2922" transform="translate(98,66)"/>
<path d="M0 0 C1.32 0 2.64 0 4 0 C4 1.98 4 3.96 4 6 C2.68 6 1.36 6 0 6 C0 4.02 0 2.04 0 0 Z " fill="#EBC7B2" transform="translate(74,53)"/>
<path d="M0 0 C-0.99 1.485 -0.99 1.485 -2 3 C-2 3.66 -2 4.32 -2 5 C-3.32 5 -4.64 5 -6 5 C-6 4.01 -6 3.02 -6 2 C-7.32 1.67 -8.64 1.34 -10 1 C-6.61981469 -0.04005702 -3.5219721 -0.08004482 0 0 Z " fill="#312A2B" transform="translate(67,2)"/>
<path d="M0 0 C1.5625 1.5625 1.5625 1.5625 3 4 C2.6875 7.75 2.6875 7.75 2 11 C1.67 11 1.34 11 1 11 C1 8.69 1 6.38 1 4 C0.34 4 -0.32 4 -1 4 C-1.33 4.99 -1.66 5.98 -2 7 C-2.6875 5.1875 -2.6875 5.1875 -3 3 C-1.5625 1.25 -1.5625 1.25 0 0 Z " fill="#ABB0B8" transform="translate(16,107)"/>
<path d="M0 0 C0.99 0 1.98 0 3 0 C3 1.98 3 3.96 3 6 C1.68 6 0.36 6 -1 6 C-1.042721 4.33388095 -1.04063832 2.66617115 -1 1 C-0.67 0.67 -0.34 0.34 0 0 Z " fill="#A78164" transform="translate(47,103)"/>
<path d="M0 0 C0.99 0.33 1.98 0.66 3 1 C3.33 1.99 3.66 2.98 4 4 C3.01 4 2.02 4 1 4 C1 4.66 1 5.32 1 6 C-0.32 6 -1.64 6 -3 6 C-1.125 1.125 -1.125 1.125 0 0 Z " fill="#344857" transform="translate(84,97)"/>
<path d="M0 0 C1.5 1.375 1.5 1.375 3 3 C3 3.66 3 4.32 3 5 C3.99 5.33 4.98 5.66 6 6 C7.1875 8.5625 7.1875 8.5625 8 11 C7.01 11.495 7.01 11.495 6 12 C4.99466333 10.37829621 3.99588093 8.75252763 3 7.125 C2.443125 6.22007813 1.88625 5.31515625 1.3125 4.3828125 C0 2 0 2 0 0 Z " fill="#4E3429" transform="translate(86,37)"/>
<path d="M0 0 C1.98 0 3.96 0 6 0 C5.67 1.98 5.34 3.96 5 6 C4.67 5.01 4.34 4.02 4 3 C1.69 3 -0.62 3 -3 3 C-2.01 2.67 -1.02 2.34 0 2 C0 1.34 0 0.68 0 0 Z " fill="#AF7C59" transform="translate(71,107)"/>
<path d="M0 0 C4.455 0.99 4.455 0.99 9 2 C8.01 2.66 7.02 3.32 6 4 C5.34 3.67 4.68 3.34 4 3 C2.32345271 3.27942455 0.65391846 3.60828247 -1 4 C-0.67 2.68 -0.34 1.36 0 0 Z " fill="#CDD0D5" transform="translate(98,104)"/>
<path d="M0 0 C2.0625 0.4375 2.0625 0.4375 4 1 C3.01 1.33 2.02 1.66 1 2 C1 3.32 1 4.64 1 6 C1.66 6 2.32 6 3 6 C2.67 6.99 2.34 7.98 2 9 C-0.57781906 6.42218094 -0.62129616 4.5598161 -1 1 C-0.67 0.67 -0.34 0.34 0 0 Z " fill="#966B4F" transform="translate(47,111)"/>
<path d="M0 0 C2.0625 0.4375 2.0625 0.4375 4 1 C3.67 1.66 3.34 2.32 3 3 C2.34 2.67 1.68 2.34 1 2 C0.34 4.64 -0.32 7.28 -1 10 C-1.33 10 -1.66 10 -2 10 C-1.85950482 8.52031676 -1.71245174 7.04125484 -1.5625 5.5625 C-1.48128906 4.73878906 -1.40007813 3.91507812 -1.31640625 3.06640625 C-1 1 -1 1 0 0 Z " fill="#77543D" transform="translate(46,98)"/>
<path d="M0 0 C0.33 0 0.66 0 1 0 C1 2.64 1 5.28 1 8 C0.01 8 -0.98 8 -2 8 C-2.20086443 4.28400809 -2.1519437 3.22791555 0 0 Z " fill="#B3B6BE" transform="translate(101,112)"/>
<path d="M0 0 C0.93065133 2.60582371 1.14917407 3.64198224 0.0625 6.25 C-0.4634375 7.11625 -0.4634375 7.11625 -1 8 C-1.99 8 -2.98 8 -4 8 C-4 7.01 -4 6.02 -4 5 C-3.34 4.67 -2.68 4.34 -2 4 C-0.86649466 1.98330173 -0.86649466 1.98330173 0 0 Z " fill="#AFB3BA" transform="translate(113,112)"/>
<path d="M0 0 C0 3.61029169 -0.96092582 6.55806676 -2 10 C-3.5625 8.75 -3.5625 8.75 -5 7 C-4.9375 5 -4.9375 5 -4 3 C-1.9375 1.25 -1.9375 1.25 0 0 Z " fill="#C1C3C9" transform="translate(105,107)"/>
<path d="M0 0 C2.49361571 1.20381448 4.68143083 2.45428722 7 4 C7 4.99 7 5.98 7 7 C6.34 7 5.68 7 5 7 C5 6.34 5 5.68 5 5 C4.360625 4.731875 3.72125 4.46375 3.0625 4.1875 C1 3 1 3 0 0 Z " fill="#C18C6C" transform="translate(70,60)"/>
<path d="M0 0 C3.63 0 7.26 0 11 0 C9.515 1.485 9.515 1.485 8 3 C7.34 3 6.68 3 6 3 C6 2.34 6 1.68 6 1 C4.02 1 2.04 1 0 1 C0 0.67 0 0.34 0 0 Z " fill="#838079" transform="translate(27,95)"/>
<path d="M0 0 C2 2 2 2 2.125 5.125 C2.08375 6.07375 2.0425 7.0225 2 8 C1.01 8.495 1.01 8.495 0 9 C-1.125 2.25 -1.125 2.25 0 0 Z " fill="#7D6B5A" transform="translate(104,66)"/>
<path d="M0 0 C-1.423125 0.61875 -1.423125 0.61875 -2.875 1.25 C-6.00716624 3.0040131 -6.86500606 3.70851757 -8 7 C-8 5.02 -8 3.04 -8 1 C-4.93251126 -0.86240388 -3.40254489 -1.2151946 0 0 Z " fill="#84583E" transform="translate(58,25)"/>
<path d="M0 0 C1.32 0.66 2.64 1.32 4 2 C3.34 2.66 2.68 3.32 2 4 C1.67 4.99 1.34 5.98 1 7 C0.34 5.02 -0.32 3.04 -1 1 C-0.67 0.67 -0.34 0.34 0 0 Z " fill="#342521" transform="translate(71,11)"/>
</svg>
